<?xml version="1.0" standalone="no"?>
  <!DOCTYPE svg PUBLIC "-//W3C//DTD SVG 1.1//EN" "http://www.w3.org/Graphics/SVG/1.1/DTD/svg11.dtd" >
  <svg>
  <metadata>
  Created by font-carrier
  </metadata>
  <defs>
  <font id="RobotoSerif8ptExtraExpanded-Regular" horiz-adv-x="1726" vert-adv-y="1726" >
    <font-face
      
      font-family="Roboto Serif 8pt ExtraExpanded"
      
      font-weight="400"
      
      font-stretch="normal"
      
      units-per-em="1000"
      
      ascent="927"
      
      descent="-244"
      
    />
      <missing-glyph />

      

      
      <glyph glyph-name="uni41" unicode="&#x41;" d="M593 234L248 234L187 85Q187 79 198 73.50Q209 68 229 65Q249 62 277 62L307 62L307 0L17 0L17 62L43 62Q74 62 93.50 75Q113 88 129 126L376 722L490 722L737 125Q753 86 772.50 74Q792 62 823 62L841 62L841 0L537 0L537 62L568 62Q596 62 616 63.50Q636 65 647 67.50Q658 70 658 73L593 234M420 659L272 294L568 294L420 659Z"  horiz-adv-x="858" vert-adv-y="1000"  />

      
      <glyph glyph-name="unic0" unicode="&#xc0;" d="M593 234L248 234L187 85Q187 79 198 73.50Q209 68 229 65Q249 62 277 62L307 62L307 0L17 0L17 62L43 62Q74 62 93.50 75Q113 88 129 126L376 722L490 722L737 125Q753 86 772.50 74Q792 62 823 62L841 62L841 0L537 0L537 62L568 62Q596 62 616 63.50Q636 65 647 67.50Q658 70 658 73L593 234M420 659L272 294L568 294L420 659M415 931Q403 943 391 954Q379 965 366 972Q353 979 336 979Q312 979 299 965Q286 951 286 934Q286 918 294 906.50Q302 895 315.50 885.50Q329 876 347 866L490 793L529 793L529 818L415 931Z"  horiz-adv-x="858" vert-adv-y="1000"  />

      
      <glyph glyph-name="unic1" unicode="&#xc1;" d="M593 234L248 234L187 85Q187 79 198 73.50Q209 68 229 65Q249 62 277 62L307 62L307 0L17 0L17 62L43 62Q74 62 93.50 75Q113 88 129 126L376 722L490 722L737 125Q753 86 772.50 74Q792 62 823 62L841 62L841 0L537 0L537 62L568 62Q596 62 616 63.50Q636 65 647 67.50Q658 70 658 73L593 234M420 659L272 294L568 294L420 659M440 931L326 818L326 793L365 793L508 866Q526 876 540 885.50Q554 895 561.50 906.50Q569 918 569 934Q569 951 556 965Q543 979 519 979Q503 979 489.50 972Q476 965 464.50 954Q453 943 440 931Z"  horiz-adv-x="858" vert-adv-y="1000"  />

      
      <glyph glyph-name="unic2" unicode="&#xc2;" d="M593 234L248 234L187 85Q187 79 198 73.50Q209 68 229 65Q249 62 277 62L307 62L307 0L17 0L17 62L43 62Q74 62 93.50 75Q113 88 129 126L376 722L490 722L737 125Q753 86 772.50 74Q792 62 823 62L841 62L841 0L537 0L537 62L568 62Q596 62 616 63.50Q636 65 647 67.50Q658 70 658 73L593 234M420 659L272 294L568 294L420 659M465 958L388 958L246 807L246 782L286 782L421 880L560 782L609 782L609 807L465 958Z"  horiz-adv-x="858" vert-adv-y="1000"  />

      
      <glyph glyph-name="unic3" unicode="&#xc3;" d="M593 234L248 234L187 85Q187 79 198 73.50Q209 68 229 65Q249 62 277 62L307 62L307 0L17 0L17 62L43 62Q74 62 93.50 75Q113 88 129 126L376 722L490 722L737 125Q753 86 772.50 74Q792 62 823 62L841 62L841 0L537 0L537 62L568 62Q596 62 616 63.50Q636 65 647 67.50Q658 70 658 73L593 234M420 659L272 294L568 294L420 659M510 788Q484 788 463 799.50Q442 811 425 828Q408 845 393.50 861.50Q379 878 365.50 889.50Q352 901 338 901Q322 901 312 890Q302 879 296.50 854.50Q291 830 286 789L224 797Q234 868 249 906Q264 944 286.50 958.50Q309 973 341 973Q367 973 388 962Q409 951 426 934.50Q443 918 458.50 901Q474 884 488 873Q502 862 517 862Q533 862 542 873.50Q551 885 557 910Q563 935 570 976L632 968Q621 896 605 857Q589 818 565.50 803Q542 788 510 788Z"  horiz-adv-x="858" vert-adv-y="1000"  />

      
      <glyph glyph-name="unic4" unicode="&#xc4;" d="M593 234L248 234L187 85Q187 79 198 73.50Q209 68 229 65Q249 62 277 62L307 62L307 0L17 0L17 62L43 62Q74 62 93.50 75Q113 88 129 126L376 722L490 722L737 125Q753 86 772.50 74Q792 62 823 62L841 62L841 0L537 0L537 62L568 62Q596 62 616 63.50Q636 65 647 67.50Q658 70 658 73L593 234M420 659L272 294L568 294L420 659M363 856Q363 823 344 804.50Q325 786 291 786Q258 786 239.50 804.50Q221 823 221 856Q221 890 239.50 908.50Q258 927 292 927Q325 927 344 908.50Q363 890 363 856M635 856Q635 823 616 804.50Q597 786 564 786Q530 786 511.50 804.50Q493 823 493 856Q493 890 511.50 908.50Q530 927 564 927Q597 927 616 908.50Q635 890 635 856Z"  horiz-adv-x="858" vert-adv-y="1000"  />

      
      <glyph glyph-name="unic5" unicode="&#xc5;" d="M593 234L248 234L187 85Q187 79 198 73.50Q209 68 229 65Q249 62 277 62L307 62L307 0L17 0L17 62L43 62Q74 62 93.50 75Q113 88 129 126L376 722L490 722L737 125Q753 86 772.50 74Q792 62 823 62L841 62L841 0L537 0L537 62L568 62Q596 62 616 63.50Q636 65 647 67.50Q658 70 658 73L593 234M420 659L272 294L568 294L420 659M347 902Q347 867 369.50 849.50Q392 832 427 832Q462 832 485 849.50Q508 867 508 902Q508 938 485 955.50Q462 973 427 973Q392 973 369.50 955.50Q347 938 347 902M572 902Q572 850 535.50 817Q499 784 427 784Q355 784 319 817Q283 850 283 902Q283 937 299 964Q315 991 347 1006Q379 1021 427 1021Q475 1021 507 1006Q539 991 555.50 964Q572 937 572 902Z"  horiz-adv-x="858" vert-adv-y="1000"  />

      
      <glyph glyph-name="uni0100" unicode="&#x0100;" d="M593 234L248 234L187 85Q187 79 198 73.50Q209 68 229 65Q249 62 277 62L307 62L307 0L17 0L17 62L43 62Q74 62 93.50 75Q113 88 129 126L376 722L490 722L737 125Q753 86 772.50 74Q792 62 823 62L841 62L841 0L537 0L537 62L568 62Q596 62 616 63.50Q636 65 647 67.50Q658 70 658 73L593 234M420 659L272 294L568 294L420 659M245 908L611 908L611 844L245 844L245 908Z"  horiz-adv-x="858" vert-adv-y="1000"  />

      
      <glyph glyph-name="uni0102" unicode="&#x0102;" d="M593 234L248 234L187 85Q187 79 198 73.50Q209 68 229 65Q249 62 277 62L307 62L307 0L17 0L17 62L43 62Q74 62 93.50 75Q113 88 129 126L376 722L490 722L737 125Q753 86 772.50 74Q792 62 823 62L841 62L841 0L537 0L537 62L568 62Q596 62 616 63.50Q636 65 647 67.50Q658 70 658 73L593 234M420 659L272 294L568 294L420 659M428 797Q491 797 536 815.50Q581 834 605 871.50Q629 909 630 965L564 965Q562 936 548.50 915.50Q535 895 506 884Q477 873 428 873Q382 873 354 884Q326 895 312.50 915.50Q299 936 296 965L225 965Q227 909 251.50 871.50Q276 834 321 815.50Q366 797 428 797Z"  horiz-adv-x="858" vert-adv-y="1000"  />

      
      <glyph glyph-name="uni0104" unicode="&#x0104;" d="M841 0L710 0Q663-37 636-63Q606-91 594-111.50Q582-132 582-153Q582-176 595.50-186.50Q609-197 637-197Q669-197 694.50-182Q720-167 742-144L777-182Q749-213 710.50-232.50Q672-252 614-252Q555-252 522-230.50Q489-209 489-164Q489-140 497.50-120.50Q506-101 528-80.50Q550-60 590-32Q624-9 676 26L592 234L248 234L187 85Q187 79 198 73.50Q209 68 229 65Q249 62 277 62L307 62L307 0L17 0L17 62L43 62Q74 62 93.50 75Q113 88 129 126L376 722L490 722L737 125Q753 86 772.50 74Q792 62 823 62L841 62L841 0M272 294L568 294L420 659L272 294Z"  horiz-adv-x="858" vert-adv-y="1000"  />

      
      <glyph glyph-name="uni01CD" unicode="&#x01CD;" d="M593 234L248 234L187 85Q187 79 198 73.50Q209 68 229 65Q249 62 277 62L307 62L307 0L17 0L17 62L43 62Q74 62 93.50 75Q113 88 129 126L376 722L490 722L737 125Q753 86 772.50 74Q792 62 823 62L841 62L841 0L537 0L537 62L568 62Q596 62 616 63.50Q636 65 647 67.50Q658 70 658 73L593 234M420 659L272 294L568 294L420 659M390 782L246 933L246 958L295 958L434 860L569 958L609 958L609 933L467 782L390 782Z"  horiz-adv-x="858" vert-adv-y="1000"  />

      
      <glyph glyph-name="uni01FA" unicode="&#x01FA;" d="M593 234L248 234L187 85Q187 79 198 73.50Q209 68 229 65Q249 62 277 62L307 62L307 0L17 0L17 62L43 62Q74 62 93.50 75Q113 88 129 126L376 722L490 722L737 125Q753 86 772.50 74Q792 62 823 62L841 62L841 0L537 0L537 62L568 62Q596 62 616 63.50Q636 65 647 67.50Q658 70 658 73L593 234M420 659L272 294L568 294L420 659M349 901Q349 866 371.50 848.50Q394 831 429 831Q464 831 487 848.50Q510 866 510 901Q510 937 487 954.50Q464 972 429 972Q394 972 371.50 954.50Q349 937 349 901M574 901Q574 849 537.50 816Q501 783 429 783Q357 783 321 816Q285 849 285 901Q285 936 301 963Q317 990 349 1005Q381 1020 429 1020Q477 1020 509 1005Q541 990 557.50 963Q574 936 574 901M452 1196L338 1083L338 1058L377 1058L520 1131Q538 1141 552 1150.50Q566 1160 573.50 1171.50Q581 1183 581 1199Q581 1216 568 1230Q555 1244 531 1244Q515 1244 501.50 1237Q488 1230 476.50 1219Q465 1208 452 1196Z"  horiz-adv-x="858" vert-adv-y="1000"  />

      
      <glyph glyph-name="uni0200" unicode="&#x0200;" d="M593 234L248 234L187 85Q187 79 198 73.50Q209 68 229 65Q249 62 277 62L307 62L307 0L17 0L17 62L43 62Q74 62 93.50 75Q113 88 129 126L376 722L490 722L737 125Q753 86 772.50 74Q792 62 823 62L841 62L841 0L537 0L537 62L568 62Q596 62 616 63.50Q636 65 647 67.50Q658 70 658 73L593 234M420 659L272 294L568 294L420 659M291 922L357 818L357 793L319 793L221 858Q198 874 183 890Q168 906 168 927Q168 945 181.50 958.50Q195 972 220 972Q237 972 249.50 965.50Q262 959 272 948Q282 937 291 922M499 922L567 818L567 793L530 793L432 858Q408 874 393.50 890Q379 906 379 927Q379 945 392.50 958.50Q406 972 430 972Q447 972 459 965.50Q471 959 480.50 948Q490 937 499 922Z"  horiz-adv-x="858" vert-adv-y="1000"  />

      
      <glyph glyph-name="uni0202" unicode="&#x0202;" d="M593 234L248 234L187 85Q187 79 198 73.50Q209 68 229 65Q249 62 277 62L307 62L307 0L17 0L17 62L43 62Q74 62 93.50 75Q113 88 129 126L376 722L490 722L737 125Q753 86 772.50 74Q792 62 824 62L841 62L841 0L537 0L537 62L568 62Q596 62 616 63.50Q636 65 647 67.50Q658 70 658 73L593 234M420 659L272 294L568 294L420 659M427 965Q489 965 534 946.50Q579 928 604 890.50Q629 853 630 797L559 797Q557 826 543 846.50Q529 867 501 878Q473 889 427 889Q379 889 349.50 878Q320 867 306.50 846.50Q293 826 291 797L225 797Q226 853 250 890.50Q274 928 319 946.50Q364 965 427 965Z"  horiz-adv-x="858" vert-adv-y="1000"  />

      
      <glyph glyph-name="uni1EA0" unicode="&#x1EA0;" d="M593 234L248 234L187 85Q187 79 198 73.50Q209 68 229 65Q249 62 277 62L307 62L307 0L17 0L17 62L43 62Q74 62 93.50 75Q113 88 129 126L376 722L490 722L737 125Q753 86 772.50 74Q792 62 823 62L841 62L841 0L537 0L537 62L568 62Q596 62 616 63.50Q636 65 647 67.50Q658 70 658 73L593 234M420 659L272 294L568 294L420 659M428-233Q394-233 376-213.50Q358-194 358-161Q358-127 376-107.50Q394-88 428-88Q461-88 479.50-107.50Q498-127 498-160Q498-194 479.50-213.50Q461-233 428-233Z"  horiz-adv-x="858" vert-adv-y="1000"  />

      
      <glyph glyph-name="uni1EA2" unicode="&#x1EA2;" d="M593 234L248 234L187 85Q187 79 198 73.50Q209 68 229 65Q249 62 277 62L307 62L307 0L17 0L17 62L43 62Q74 62 93.50 75Q113 88 129 126L376 722L490 722L737 125Q753 86 772.50 74Q792 62 823 62L841 62L841 0L537 0L537 62L568 62Q596 62 616 63.50Q636 65 647 67.50Q658 70 658 73L593 234M420 659L272 294L568 294L420 659M255 929L340 929Q344 954 369 969Q394 984 437 984Q483 984 501 970.50Q519 957 519 933Q519 910 503 896Q487 882 457.50 876Q428 870 389 869L389 778L467 778L467 833Q491 836 512 840Q554 849 579 872.50Q604 896 604 938Q604 971 586 995.50Q568 1020 531.50 1034Q495 1048 439 1048Q385 1048 344.50 1033Q304 1018 281 991Q258 964 255 929Z"  horiz-adv-x="858" vert-adv-y="1000"  />

      
      <glyph glyph-name="uni1EA4" unicode="&#x1EA4;" d="M593 234L248 234L187 85Q187 79 198 73.50Q209 68 229 65Q249 62 277 62L307 62L307 0L17 0L17 62L43 62Q74 62 93.50 75Q113 88 129 126L376 722L490 722L737 125Q753 86 772.50 74Q792 62 823 62L841 62L841 0L537 0L537 62L568 62Q596 62 616 63.50Q636 65 647 67.50Q658 70 658 73L593 234M420 659L272 294L568 294L420 659M470 958L393 958L251 807L251 782L291 782L426 880L565 782L614 782L614 807L470 958M686 1059L577 934L577 909L615 909L754 991Q773 1002 786.50 1012Q800 1022 808 1033.50Q816 1045 816 1058Q816 1078 802.50 1092Q789 1106 763 1106Q747 1106 734 1100Q721 1094 709.50 1083.50Q698 1073 686 1059Z"  horiz-adv-x="858" vert-adv-y="1000"  />

      
      <glyph glyph-name="uni1EA6" unicode="&#x1EA6;" d="M593 234L248 234L187 85Q187 79 198 73.50Q209 68 229 65Q249 62 277 62L307 62L307 0L17 0L17 62L43 62Q74 62 93.50 75Q113 88 129 126L376 722L490 722L737 125Q753 86 772.50 74Q792 62 823 62L841 62L841 0L537 0L537 62L568 62Q596 62 616 63.50Q636 65 647 67.50Q658 70 658 73L593 234M420 659L272 294L568 294L420 659M472 958L395 958L253 807L253 782L293 782L428 880L567 782L616 782L616 807L472 958M639 1071Q627 1085 616 1095Q605 1105 592.50 1111Q580 1117 564 1117Q539 1117 526 1104Q513 1091 513 1074Q513 1059 521 1047Q529 1035 542 1025Q555 1015 571 1005L710 922L748 922L748 947L639 1071Z"  horiz-adv-x="858" vert-adv-y="1000"  />

      
      <glyph glyph-name="uni1EA8" unicode="&#x1EA8;" d="M593 234L248 234L187 85Q187 79 198 73.50Q209 68 229 65Q249 62 277 62L307 62L307 0L17 0L17 62L43 62Q74 62 93.50 75Q113 88 129 126L376 722L490 722L737 125Q753 86 772.50 74Q792 62 823 62L841 62L841 0L537 0L537 62L568 62Q596 62 616 63.50Q636 65 647 67.50Q658 70 658 73L593 234M420 659L272 294L568 294L420 659M493 1048L578 1048Q580 1066 598.50 1079Q617 1092 662 1092Q700 1092 715.50 1081Q731 1070 732 1050Q734 1017 704.50 1004Q675 991 608 990L608 910L686 910L686 949Q700 951 713 953Q746 959 769.50 971.50Q793 984 805 1004.50Q817 1025 817 1054Q816 1100 778.50 1128.50Q741 1157 664 1157Q610 1157 572.50 1142.50Q535 1128 515 1103.50Q495 1079 493 1048M465 958L388 958L246 807L246 782L286 782L421 880L560 782L609 782L609 807L465 958Z"  horiz-adv-x="858" vert-adv-y="1000"  />

      
      <glyph glyph-name="uni1EAA" unicode="&#x1EAA;" d="M593 234L248 234L187 85Q187 79 198 73.50Q209 68 229 65Q249 62 277 62L307 62L307 0L17 0L17 62L43 62Q74 62 93.50 75Q113 88 129 126L376 722L490 722L737 125Q753 86 772.50 74Q792 62 823 62L841 62L841 0L537 0L537 62L568 62Q596 62 616 63.50Q636 65 647 67.50Q658 70 658 73L593 234M420 659L272 294L568 294L420 659M503 995Q471 995 448.50 1007Q426 1019 409 1035.50Q392 1052 377.50 1064Q363 1076 346 1076Q323 1076 311.50 1058Q300 1040 289 994L226 1004Q236 1058 253.50 1088Q271 1118 296 1130.50Q321 1143 353 1143Q385 1143 406.50 1131Q428 1119 444.50 1104Q461 1089 476 1077Q491 1065 509 1065Q532 1065 544.50 1083Q557 1101 567 1148L630 1138Q619 1081 601.50 1050Q584 1019 559.50 1007Q535 995 503 995M466 937L607 807L607 782L558 782L422 865L289 782L249 782L249 807L389 937L466 937Z"  horiz-adv-x="858" vert-adv-y="1000"  />

      
      <glyph glyph-name="uni1EAC" unicode="&#x1EAC;" d="M593 234L248 234L187 85Q187 79 198 73.50Q209 68 229 65Q249 62 277 62L307 62L307 0L17 0L17 62L43 62Q74 62 93.50 75Q113 88 129 126L376 722L490 722L737 125Q753 86 772.50 74Q792 62 823 62L841 62L841 0L537 0L537 62L568 62Q596 62 616 63.50Q636 65 647 67.50Q658 70 658 73L593 234M420 659L272 294L568 294L420 659M465 958L388 958L246 807L246 782L286 782L421 880L560 782L609 782L609 807L465 958M429-233Q395-233 377-213.50Q359-194 359-161Q359-127 377-107.50Q395-88 429-88Q462-88 480.50-107.50Q499-127 499-160Q499-194 480.50-213.50Q462-233 429-233Z"  horiz-adv-x="858" vert-adv-y="1000"  />

      
      <glyph glyph-name="uni1EAE" unicode="&#x1EAE;" d="M593 234L248 234L187 85Q187 79 198 73.50Q209 68 229 65Q249 62 277 62L307 62L307 0L17 0L17 62L43 62Q74 62 93.50 75Q113 88 129 126L376 722L490 722L737 125Q753 86 772.50 74Q792 62 823 62L841 62L841 0L537 0L537 62L568 62Q596 62 616 63.50Q636 65 647 67.50Q658 70 658 73L593 234M420 659L272 294L568 294L420 659M428 797Q491 797 536 815.50Q581 834 605 871.50Q629 909 630 965L564 965Q562 936 548.50 915.50Q535 895 506 884Q477 873 428 873Q382 873 354 884Q326 895 312.50 915.50Q299 936 296 965L225 965Q227 909 251.50 871.50Q276 834 321 815.50Q366 797 428 797M469 1100L356 997L356 972L394 972L537 1035Q555 1043 569 1053Q583 1063 591 1075Q599 1087 599 1101Q599 1118 585 1133Q571 1148 548 1148Q531 1148 518 1141Q505 1134 493.50 1123Q482 1112 469 1100Z"  horiz-adv-x="858" vert-adv-y="1000"  />

      
      <glyph glyph-name="uni1EB0" unicode="&#x1EB0;" d="M593 234L248 234L187 85Q187 79 198 73.50Q209 68 229 65Q249 62 277 62L307 62L307 0L17 0L17 62L43 62Q74 62 93.50 75Q113 88 129 126L376 722L490 722L737 125Q753 86 772.50 74Q792 62 823 62L841 62L841 0L537 0L537 62L568 62Q596 62 616 63.50Q636 65 647 67.50Q658 70 658 73L593 234M420 659L272 294L568 294L420 659M428 797Q491 797 536 815.50Q581 834 605 871.50Q629 909 630 965L564 965Q562 936 548.50 915.50Q535 895 506 884Q477 873 428 873Q382 873 354 884Q326 895 312.50 915.50Q299 936 296 965L225 965Q227 909 251.50 871.50Q276 834 321 815.50Q366 797 428 797M390 1100Q377 1112 365 1123Q353 1134 340.50 1141Q328 1148 311 1148Q287 1148 273.50 1133Q260 1118 260 1101Q260 1087 268 1075Q276 1063 290 1053Q304 1043 322 1035L465 972L503 972L503 997L390 1100Z"  horiz-adv-x="858" vert-adv-y="1000"  />

      
      <glyph glyph-name="uni1EB2" unicode="&#x1EB2;" d="M593 234L248 234L187 85Q187 79 198 73.50Q209 68 229 65Q249 62 277 62L307 62L307 0L17 0L17 62L43 62Q74 62 93.50 75Q113 88 129 126L376 722L490 722L737 125Q753 86 772.50 74Q792 62 823 62L841 62L841 0L537 0L537 62L568 62Q596 62 616 63.50Q636 65 647 67.50Q658 70 658 73L593 234M420 659L272 294L568 294L420 659M255 1088L340 1088Q342 1106 362 1119.50Q382 1133 434 1133Q486 1133 504.50 1121.50Q523 1110 524 1091Q525 1071 512 1059Q499 1047 469.50 1041.50Q440 1036 390 1035L390 950L468 950L468 989Q498 992 523 998Q566 1007 588 1030Q610 1053 609 1094Q609 1125 590.50 1148Q572 1171 534 1184Q496 1197 434 1197Q375 1197 336 1182.50Q297 1168 277 1143.50Q257 1119 255 1088M428 797Q481 797 526.50 813.50Q572 830 600.50 867Q629 904 630 965L564 965Q562 934 544 913.50Q526 893 496.50 883Q467 873 428 873Q392 873 363 883Q334 893 316.50 913.50Q299 934 296 965L225 965Q227 904 255.50 867Q284 830 330 813.50Q376 797 428 797Z"  horiz-adv-x="858" vert-adv-y="1000"  />

      
      <glyph glyph-name="uni1EB4" unicode="&#x1EB4;" d="M593 234L248 234L187 85Q187 79 198 73.50Q209 68 229 65Q249 62 277 62L307 62L307 0L17 0L17 62L43 62Q74 62 93.50 75Q113 88 129 126L376 722L490 722L737 125Q753 86 772.50 74Q792 62 823 62L841 62L841 0L537 0L537 62L568 62Q596 62 616 63.50Q636 65 647 67.50Q658 70 658 73L593 234M420 659L272 294L568 294L420 659M428 797Q486 797 531.50 813Q577 829 603 863.50Q629 898 630 952L564 952Q562 929 546.50 911Q531 893 501.50 883Q472 873 428 873Q387 873 358.50 883Q330 893 314.50 911Q299 929 296 952L225 952Q227 898 253.50 863.50Q280 829 325.50 813Q371 797 428 797M503 1003Q535 1003 559.50 1015Q584 1027 601.50 1058Q619 1089 630 1146L567 1156Q557 1109 544 1091Q531 1073 509 1073Q491 1073 475.50 1085Q460 1097 444 1112Q428 1127 406 1139Q384 1151 353 1151Q320 1151 295 1138.50Q270 1126 253 1096Q236 1066 226 1012L289 1002Q299 1048 310.50 1066Q322 1084 346 1084Q362 1084 377 1072Q392 1060 408.50 1043.50Q425 1027 447.50 1015Q470 1003 503 1003Z"  horiz-adv-x="858" vert-adv-y="1000"  />

      
      <glyph glyph-name="uni1EB6" unicode="&#x1EB6;" d="M593 234L248 234L187 85Q187 79 198 73.50Q209 68 229 65Q249 62 277 62L307 62L307 0L17 0L17 62L43 62Q74 62 93.50 75Q113 88 129 126L376 722L490 722L737 125Q753 86 772.50 74Q792 62 823 62L841 62L841 0L537 0L537 62L568 62Q596 62 616 63.50Q636 65 647 67.50Q658 70 658 73L593 234M420 659L272 294L568 294L420 659M428 797Q491 797 536 815.50Q581 834 605 871.50Q629 909 630 965L564 965Q562 936 548.50 915.50Q535 895 506 884Q477 873 428 873Q382 873 354 884Q326 895 312.50 915.50Q299 936 296 965L225 965Q227 909 251.50 871.50Q276 834 321 815.50Q366 797 428 797M429-233Q395-233 377-213.50Q359-194 359-161Q359-127 377-107.50Q395-88 429-88Q462-88 480.50-107.50Q499-127 499-160Q499-194 480.50-213.50Q462-233 429-233Z"  horiz-adv-x="858" vert-adv-y="1000"  />

      
      <glyph glyph-name="uni42" unicode="&#x42;" d="M488 710Q548 710 593.50 699Q639 688 669.50 666.50Q700 645 715.50 612.50Q731 580 731 538Q731 489 707 453Q683 417 633 398Q606 387 570 382L570 363Q615 357 649 346Q709 327 738.50 290.50Q768 254 768 196Q768 147 751 110Q734 73 700 48.50Q666 24 616 12Q566 0 500 0L69 0L69 62L100 62Q137 62 161 69Q185 76 185 98L185 612Q185 634 161 641Q137 648 100 648L69 648L69 710L488 710M276 342L276 62L487 62Q549 62 589.50 77Q630 92 650 122.50Q670 153 670 199Q670 247 647 278.50Q624 310 579 326Q534 342 466 342L276 342M276 402L466 402Q522 402 559.50 415.50Q597 429 616 457.50Q635 486 635 530Q635 569 618 595Q601 621 566 634.50Q531 648 475 648L276 648L276 402Z"  horiz-adv-x="839" vert-adv-y="1000"  />

      
      <glyph glyph-name="uni43" unicode="&#x43;" d="M479 669Q410 669 353 651Q296 633 255.50 595.50Q215 558 193 498.50Q171 439 171 356Q171 273 192.50 213Q214 153 255 115Q296 77 354.50 59Q413 41 486 41Q577 41 639.50 65Q702 89 742 134Q782 179 805 241L869 213Q841 139 789 85.50Q737 32 661.50 3.50Q586-25 484-25Q389-25 313-1Q237 23 183 71Q129 119 100.50 190.50Q72 262 72 356Q72 450 101.50 521Q131 592 185 639.50Q239 687 314 711Q389 735 479 735Q563 735 630 708.50Q697 682 743 630Q760 610 773 586L784 720L852 720L852 460L778 460Q756 526 715.50 573Q675 620 616 644.50Q557 669 479 669Z"  horiz-adv-x="942" vert-adv-y="1000"  />

      
      <glyph glyph-name="unic7" unicode="&#xc7;" d="M479 669Q410 669 353 651Q296 633 255.50 595.50Q215 558 193 498.50Q171 439 171 356Q171 273 192.50 213Q214 153 255 115Q296 77 354.50 59Q413 41 486 41Q577 41 639.50 65Q702 89 742 134Q782 179 805 241L869 213Q841 139 789 85.50Q737 32 662 4Q594-22 506-25L456-71Q510-72 548-81Q590-92 611-114.50Q632-137 632-173Q632-205 618.50-227Q605-249 582-263Q559-277 531-283Q503-289 474-289Q421-289 378-271.50Q335-254 315-226L359-184Q373-200 390.50-211.50Q408-223 429-229.50Q450-236 474-236Q514-236 533-221Q552-206 552-177Q552-148 527.50-134Q503-120 432-120L396-120L438-24Q370-19 313-1Q237 23 183 71Q129 119 100.50 190.50Q72 262 72 356Q72 450 101.50 521Q131 592 185 639.50Q239 687 314 711Q389 735 479 735Q563 735 630 708.50Q697 682 743 630Q760 610 773 586L784 720L852 720L852 460L778 460Q756 526 715.50 573Q675 620 616 644.50Q557 669 479 669Z"  horiz-adv-x="942" vert-adv-y="1000"  />

      
      <glyph glyph-name="uni0106" unicode="&#x0106;" d="M479 669Q410 669 353 651Q296 633 255.50 595.50Q215 558 193 498.50Q171 439 171 356Q171 273 192.50 213Q214 153 255 115Q296 77 354.50 59Q413 41 486 41Q577 41 639.50 65Q702 89 742 134Q782 179 805 241L869 213Q841 139 789 85.50Q737 32 661.50 3.50Q586-25 484-25Q389-25 313-1Q237 23 183 71Q129 119 100.50 190.50Q72 262 72 356Q72 450 101.50 521Q131 592 185 639.50Q239 687 314 711Q389 735 479 735Q563 735 630 708.50Q697 682 743 630Q760 610 773 586L784 720L852 720L852 460L778 460Q756 526 715.50 573Q675 620 616 644.50Q557 669 479 669M510 931L396 818L396 793L435 793L578 866Q596 876 610 885.50Q624 895 631.50 906.50Q639 918 639 934Q639 951 626 965Q613 979 589 979Q573 979 559.50 972Q546 965 534.50 954Q523 943 510 931Z"  horiz-adv-x="942" vert-adv-y="1000"  />

      
      <glyph glyph-name="uni0108" unicode="&#x0108;" d="M479 669Q410 669 353 651Q296 633 255.50 595.50Q215 558 193 498.50Q171 439 171 356Q171 273 192.50 213Q214 153 255 115Q296 77 354.50 59Q413 41 486 41Q577 41 639.50 65Q702 89 742 134Q782 179 805 241L869 213Q841 139 789 85.50Q737 32 661.50 3.50Q586-25 484-25Q389-25 313-1Q237 23 183 71Q129 119 100.50 190.50Q72 262 72 356Q72 450 101.50 521Q131 592 185 639.50Q239 687 314 711Q389 735 479 735Q563 735 630 708.50Q697 682 743 630Q760 610 773 586L784 720L852 720L852 460L778 460Q756 526 715.50 573Q675 620 616 644.50Q557 669 479 669M535 958L458 958L316 807L316 782L356 782L491 880L630 782L679 782L679 807L535 958Z"  horiz-adv-x="942" vert-adv-y="1000"  />

      
      <glyph glyph-name="uni010A" unicode="&#x010A;" d="M479 669Q410 669 353 651Q296 633 255.50 595.50Q215 558 193 498.50Q171 439 171 356Q171 273 192.50 213Q214 153 255 115Q296 77 354.50 59Q413 41 486 41Q577 41 639.50 65Q702 89 742 134Q782 179 805 241L869 213Q841 139 789 85.50Q737 32 661.50 3.50Q586-25 484-25Q389-25 313-1Q237 23 183 71Q129 119 100.50 190.50Q72 262 72 356Q72 450 101.50 521Q131 592 185 639.50Q239 687 314 711Q389 735 479 735Q563 735 630 708.50Q697 682 743 630Q760 610 773 586L784 720L852 720L852 460L778 460Q756 526 715.50 573Q675 620 616 644.50Q557 669 479 669M498 783Q464 783 446 802.50Q428 822 428 855Q428 889 446 908.50Q464 928 498 928Q531 928 549.50 908.50Q568 889 568 856Q568 822 549.50 802.50Q531 783 498 783Z"  horiz-adv-x="942" vert-adv-y="1000"  />

      
      <glyph glyph-name="uni010C" unicode="&#x010C;" d="M479 669Q410 669 353 651Q296 633 255.50 595.50Q215 558 193 498.50Q171 439 171 356Q171 273 192.50 213Q214 153 255 115Q296 77 354.50 59Q413 41 486 41Q577 41 639.50 65Q702 89 742 134Q782 179 805 241L869 213Q841 139 789 85.50Q737 32 661.50 3.50Q586-25 484-25Q389-25 313-1Q237 23 183 71Q129 119 100.50 190.50Q72 262 72 356Q72 450 101.50 521Q131 592 185 639.50Q239 687 314 711Q389 735 479 735Q563 735 630 708.50Q697 682 743 630Q760 610 773 586L784 720L852 720L852 460L778 460Q756 526 715.50 573Q675 620 616 644.50Q557 669 479 669M460 782L316 933L316 958L365 958L504 860L639 958L679 958L679 933L537 782L460 782Z"  horiz-adv-x="942" vert-adv-y="1000"  />

      
      <glyph glyph-name="uni1E08" unicode="&#x1E08;" d="M479 669Q410 669 353 651Q296 633 255.50 595.50Q215 558 193 498.50Q171 439 171 356Q171 273 192.50 213Q214 153 255 115Q296 77 354.50 59Q413 41 486 41Q577 41 639.50 65Q702 89 742 134Q782 179 805 241L869 213Q841 139 789 85.50Q737 32 662 4Q594-22 506-25L456-71Q510-72 548-81Q590-92 611-114.50Q632-137 632-173Q632-205 618.50-227Q605-249 582-263Q559-277 531-283Q503-289 474-289Q421-289 378-271.50Q335-254 315-226L359-184Q373-200 390.50-211.50Q408-223 429-229.50Q450-236 474-236Q514-236 533-221Q552-206 552-177Q552-148 527.50-134Q503-120 432-120L396-120L438-24Q370-19 313-1Q237 23 183 71Q129 119 100.50 190.50Q72 262 72 356Q72 450 101.50 521Q131 592 185 639.50Q239 687 314 711Q389 735 479 735Q563 735 630 708.50Q697 682 743 630Q760 610 773 586L784 720L852 720L852 460L778 460Q756 526 715.50 573Q675 620 616 644.50Q557 669 479 669M510 931Q523 943 534.50 954Q546 965 559.50 972Q573 979 589 979Q613 979 626 965Q639 951 639 934Q639 918 631.50 906.50Q624 895 610 885.50Q596 876 578 866L435 793L396 793L396 818L510 931Z"  horiz-adv-x="942" vert-adv-y="1000"  />

      
      <glyph glyph-name="uni44" unicode="&#x44;" d="M69 648L69 710L424 710Q537 710 623 688.50Q709 667 767.50 623.50Q826 580 856 514Q886 448 886 359Q886 270 856 203Q826 136 767.50 90.50Q709 45 623 22.50Q537 0 424 0L69 0L69 62L100 62Q137 62 161 69Q185 76 185 98L185 612Q185 634 161 641Q137 648 100 648L69 648M417 648L276 648L276 62L417 62Q511 62 580.50 79Q650 96 696 132.50Q742 169 765 225Q788 281 788 359Q788 437 765 492Q742 547 696 581.50Q650 616 580.50 632Q511 648 417 648Z"  horiz-adv-x="958" vert-adv-y="1000"  />

      
      <glyph glyph-name="uni010E" unicode="&#x010E;" d="M69 648L69 710L424 710Q537 710 623 688.50Q709 667 767.50 623.50Q826 580 856 514Q886 448 886 359Q886 270 856 203Q826 136 767.50 90.50Q709 45 623 22.50Q537 0 424 0L69 0L69 62L100 62Q137 62 161 69Q185 76 185 98L185 612Q185 634 161 641Q137 648 100 648L69 648M417 648L276 648L276 62L417 62Q511 62 580.50 79Q650 96 696 132.50Q742 169 765 225Q788 281 788 359Q788 437 765 492Q742 547 696 581.50Q650 616 580.50 632Q511 648 417 648M414 782L270 933L270 958L319 958L458 860L593 958L633 958L633 933L491 782L414 782Z"  horiz-adv-x="958" vert-adv-y="1000"  />

      
      <glyph glyph-name="uni1E0C" unicode="&#x1E0C;" d="M69 648L69 710L424 710Q537 710 623 688.50Q709 667 767.50 623.50Q826 580 856 514Q886 448 886 359Q886 270 856 203Q826 136 767.50 90.50Q709 45 623 22.50Q537 0 424 0L69 0L69 62L100 62Q137 62 161 69Q185 76 185 98L185 612Q185 634 161 641Q137 648 100 648L69 648M417 648L276 648L276 62L417 62Q511 62 580.50 79Q650 96 696 132.50Q742 169 765 225Q788 281 788 359Q788 437 765 492Q742 547 696 581.50Q650 616 580.50 632Q511 648 417 648M452-233Q418-233 400-213.50Q382-194 382-161Q382-127 400-107.50Q418-88 452-88Q485-88 503.50-107.50Q522-127 522-160Q522-194 503.50-213.50Q485-233 452-233Z"  horiz-adv-x="958" vert-adv-y="1000"  />

      
      <glyph glyph-name="uni1E0E" unicode="&#x1E0E;" d="M69 648L69 710L424 710Q537 710 623 688.50Q709 667 767.50 623.50Q826 580 856 514Q886 448 886 359Q886 270 856 203Q826 136 767.50 90.50Q709 45 623 22.50Q537 0 424 0L69 0L69 62L100 62Q137 62 161 69Q185 76 185 98L185 612Q185 634 161 641Q137 648 100 648L69 648M417 648L276 648L276 62L417 62Q511 62 580.50 79Q650 96 696 132.50Q742 169 765 225Q788 281 788 359Q788 437 765 492Q742 547 696 581.50Q650 616 580.50 632Q511 648 417 648M269-125L635-125L635-189L269-189L269-125Z"  horiz-adv-x="958" vert-adv-y="1000"  />

      
      <glyph glyph-name="uni45" unicode="&#x45;" d="M742 226L742 0L69 0L69 62L100 62Q137 62 161 69Q185 76 185 98L185 612Q185 634 161 641Q137 648 100 648L69 648L69 710L715 710L715 509L651 509L638 603Q636 621 622.50 630.50Q609 640 582.50 644Q556 648 513 648L276 648L276 394Q326 396 372 398Q428 400 484.50 402Q541 404 602 406L602 324Q542 326 485.50 328Q429 330 373 333Q327 335 276 336L276 62L536 62Q568 62 591 64Q614 66 629 71Q644 76 651.50 85Q659 94 661 107L676 226L742 226Z"  horiz-adv-x="837" vert-adv-y="1000"  />

      
      <glyph glyph-name="unic8" unicode="&#xc8;" d="M742 226L742 0L69 0L69 62L100 62Q137 62 161 69Q185 76 185 98L185 612Q185 634 161 641Q137 648 100 648L69 648L69 710L715 710L715 509L651 509L638 603Q636 621 622.50 630.50Q609 640 582.50 644Q556 648 513 648L276 648L276 394Q326 396 372 398Q428 400 484.50 402Q541 404 602 406L602 324Q542 326 485.50 328Q429 330 373 333Q327 335 276 336L276 62L536 62Q568 62 591 64Q614 66 629 71Q644 76 651.50 85Q659 94 661 107L676 226L742 226M407 931Q395 943 383 954Q371 965 358 972Q345 979 328 979Q304 979 291 965Q278 951 278 934Q278 918 286 906.50Q294 895 307.50 885.50Q321 876 339 866L482 793L521 793L521 818L407 931Z"  horiz-adv-x="837" vert-adv-y="1000"  />

      
      <glyph glyph-name="unic9" unicode="&#xc9;" d="M742 226L742 0L69 0L69 62L100 62Q137 62 161 69Q185 76 185 98L185 612Q185 634 161 641Q137 648 100 648L69 648L69 710L715 710L715 509L651 509L638 603Q636 621 622.50 630.50Q609 640 582.50 644Q556 648 513 648L276 648L276 394Q326 396 372 398Q428 400 484.50 402Q541 404 602 406L602 324Q542 326 485.50 328Q429 330 373 333Q327 335 276 336L276 62L536 62Q568 62 591 64Q614 66 629 71Q644 76 651.50 85Q659 94 661 107L676 226L742 226M432 931L318 818L318 793L357 793L500 866Q518 876 532 885.50Q546 895 553.50 906.50Q561 918 561 934Q561 951 548 965Q535 979 511 979Q495 979 481.50 972Q468 965 456.50 954Q445 943 432 931Z"  horiz-adv-x="837" vert-adv-y="1000"  />

      
      <glyph glyph-name="unica" unicode="&#xca;" d="M742 226L742 0L69 0L69 62L100 62Q137 62 161 69Q185 76 185 98L185 612Q185 634 161 641Q137 648 100 648L69 648L69 710L715 710L715 509L651 509L638 603Q636 621 622.50 630.50Q609 640 582.50 644Q556 648 513 648L276 648L276 394Q326 396 372 398Q428 400 484.50 402Q541 404 602 406L602 324Q542 326 485.50 328Q429 330 373 333Q327 335 276 336L276 62L536 62Q568 62 591 64Q614 66 629 71Q644 76 651.50 85Q659 94 661 107L676 226L742 226M457 958L380 958L238 807L238 782L278 782L413 880L552 782L601 782L601 807L457 958Z"  horiz-adv-x="837" vert-adv-y="1000"  />

      
      <glyph glyph-name="unicb" unicode="&#xcb;" d="M742 226L742 0L69 0L69 62L100 62Q137 62 161 69Q185 76 185 98L185 612Q185 634 161 641Q137 648 100 648L69 648L69 710L715 710L715 509L651 509L638 603Q636 621 622.50 630.50Q609 640 582.50 644Q556 648 513 648L276 648L276 394Q326 396 372 398Q428 400 484.50 402Q541 404 602 406L602 324Q542 326 485.50 328Q429 330 373 333Q327 335 276 336L276 62L536 62Q568 62 591 64Q614 66 629 71Q644 76 651.50 85Q659 94 661 107L676 226L742 226M355 856Q355 823 336 804.50Q317 786 283 786Q250 786 231.50 804.50Q213 823 213 856Q213 890 231.50 908.50Q250 927 284 927Q317 927 336 908.50Q355 890 355 856M627 856Q627 823 608 804.50Q589 786 556 786Q522 786 503.50 804.50Q485 823 485 856Q485 890 503.50 908.50Q522 927 556 927Q589 927 608 908.50Q627 890 627 856Z"  horiz-adv-x="837" vert-adv-y="1000"  />

      
      <glyph glyph-name="uni0112" unicode="&#x0112;" d="M742 226L742 0L69 0L69 62L100 62Q137 62 161 69Q185 76 185 98L185 612Q185 634 161 641Q137 648 100 648L69 648L69 710L715 710L715 509L651 509L638 603Q636 621 622.50 630.50Q609 640 582.50 644Q556 648 513 648L276 648L276 394Q326 396 372 398Q428 400 484.50 402Q541 404 602 406L602 324Q542 326 485.50 328Q429 330 373 333Q327 335 276 336L276 62L536 62Q568 62 591 64Q614 66 629 71Q644 76 651.50 85Q659 94 661 107L676 226L742 226M237 908L603 908L603 844L237 844L237 908Z"  horiz-adv-x="837" vert-adv-y="1000"  />

      
      <glyph glyph-name="uni0114" unicode="&#x0114;" d="M742 226L742 0L69 0L69 62L100 62Q137 62 161 69Q185 76 185 98L185 612Q185 634 161 641Q137 648 100 648L69 648L69 710L715 710L715 509L651 509L638 603Q636 621 622.50 630.50Q609 640 582.50 644Q556 648 513 648L276 648L276 394Q326 396 372 398Q428 400 484.50 402Q541 404 602 406L602 324Q542 326 485.50 328Q429 330 373 333Q327 335 276 336L276 62L536 62Q568 62 591 64Q614 66 629 71Q644 76 651.50 85Q659 94 661 107L676 226L742 226M420 797Q483 797 528 815.50Q573 834 597 871.50Q621 909 622 965L556 965Q554 936 540.50 915.50Q527 895 498 884Q469 873 420 873Q374 873 346 884Q318 895 304.50 915.50Q291 936 288 965L217 965Q219 909 243.50 871.50Q268 834 313 815.50Q358 797 420 797Z"  horiz-adv-x="837" vert-adv-y="1000"  />

      
      <glyph glyph-name="uni0116" unicode="&#x0116;" d="M742 226L742 0L69 0L69 62L100 62Q137 62 161 69Q185 76 185 98L185 612Q185 634 161 641Q137 648 100 648L69 648L69 710L715 710L715 509L651 509L638 603Q636 621 622.50 630.50Q609 640 582.50 644Q556 648 513 648L276 648L276 394Q326 396 372 398Q428 400 484.50 402Q541 404 602 406L602 324Q542 326 485.50 328Q429 330 373 333Q327 335 276 336L276 62L536 62Q568 62 591 64Q614 66 629 71Q644 76 651.50 85Q659 94 661 107L676 226L742 226M420 783Q386 783 368 802.50Q350 822 350 855Q350 889 368 908.50Q386 928 420 928Q453 928 471.50 908.50Q490 889 490 856Q490 822 471.50 802.50Q453 783 420 783Z"  horiz-adv-x="837" vert-adv-y="1000"  />

      
      <glyph glyph-name="uni0118" unicode="&#x0118;" d="M742 226L742 0L625 0L627-2Q587-34 560.50-57.50Q534-81 518.50-98.50Q503-116 496.50-131.50Q490-147 490-162Q490-185 503.50-195.50Q517-206 545-206Q577-206 602.50-191Q628-176 650-153L685-191Q657-222 618.50-241.50Q580-261 522-261Q463-261 430-239.50Q397-218 397-173Q397-149 405.50-129.50Q414-110 436-89.50Q458-69 498-41Q523-24 558 0L69 0L69 62L100 62Q137 62 161 69Q185 76 185 98L185 612Q185 634 161 641Q137 648 100 648L69 648L69 710L715 710L715 509L651 509L638 603Q636 621 622.50 630.50Q609 640 582.50 644Q556 648 513 648L276 648L276 394Q326 396 372 398Q428 400 484.50 402Q541 404 602 406L602 324Q542 326 485.50 328Q429 330 373 333Q327 335 276 336L276 62L536 62Q568 62 591 64Q614 66 629 71Q644 76 651.50 85Q659 94 661 107L676 226L742 226Z"  horiz-adv-x="837" vert-adv-y="1000"  />

      
      <glyph glyph-name="uni011A" unicode="&#x011A;" d="M742 226L742 0L69 0L69 62L100 62Q137 62 161 69Q185 76 185 98L185 612Q185 634 161 641Q137 648 100 648L69 648L69 710L715 710L715 509L651 509L638 603Q636 621 622.50 630.50Q609 640 582.50 644Q556 648 513 648L276 648L276 394Q326 396 372 398Q428 400 484.50 402Q541 404 602 406L602 324Q542 326 485.50 328Q429 330 373 333Q327 335 276 336L276 62L536 62Q568 62 591 64Q614 66 629 71Q644 76 651.50 85Q659 94 661 107L676 226L742 226M382 782L238 933L238 958L287 958L426 860L561 958L601 958L601 933L459 782L382 782Z"  horiz-adv-x="837" vert-adv-y="1000"  />

      
      <glyph glyph-name="uni0204" unicode="&#x0204;" d="M742 226L742 0L69 0L69 62L100 62Q137 62 161 69Q185 76 185 98L185 612Q185 634 161 641Q137 648 100 648L69 648L69 710L715 710L715 509L651 509L638 603Q636 621 622.50 630.50Q609 640 582.50 644Q556 648 513 648L276 648L276 394Q326 396 372 398Q428 400 484.50 402Q541 404 602 406L602 324Q542 326 485.50 328Q429 330 373 333Q327 335 276 336L276 62L536 62Q568 62 591 64Q614 66 629 71Q644 76 651.50 85Q659 94 661 107L676 226L742 226M283 922L349 818L349 793L311 793L213 858Q190 874 175 890Q160 906 160 928Q160 945 173.50 958.50Q187 972 212 972Q229 972 241.50 965.50Q254 959 264 948Q274 937 283 922M491 922L559 818L559 793L522 793L424 858Q400 874 385.50 890Q371 906 371 928Q371 945 384.50 958.50Q398 972 422 972Q439 972 451 965.50Q463 959 472.50 948Q482 937 491 922Z"  horiz-adv-x="837" vert-adv-y="1000"  />

      
      <glyph glyph-name="uni0206" unicode="&#x0206;" d="M742 226L742 0L69 0L69 62L100 62Q137 62 161 69Q185 76 185 98L185 612Q185 634 161 641Q137 648 100 648L69 648L69 710L715 710L715 509L651 509L638 603Q636 621 622.50 630.50Q609 640 582.50 644Q556 648 513 648L276 648L276 394Q326 396 372 398Q428 400 484.50 402Q541 404 602 406L602 324Q542 326 485.50 328Q429 330 373 333Q327 335 276 336L276 62L536 62Q568 62 591 64Q614 66 629 71Q644 76 651.50 85Q659 94 661 107L676 226L742 226M419 965Q481 965 526 946.50Q571 928 596 890.50Q621 853 622 797L551 797Q549 826 535 846.50Q521 867 493 878Q465 889 419 889Q371 889 341.50 878Q312 867 298.50 846.50Q285 826 283 797L217 797Q218 853 242 890.50Q266 928 311 946.50Q356 965 419 965Z"  horiz-adv-x="837" vert-adv-y="1000"  />

      
      <glyph glyph-name="uni1E14" unicode="&#x1E14;" d="M742 226L742 0L69 0L69 62L100 62Q137 62 161 69Q185 76 185 98L185 612Q185 634 161 641Q137 648 100 648L69 648L69 710L715 710L715 509L651 509L638 603Q636 621 622.50 630.50Q609 640 582.50 644Q556 648 513 648L276 648L276 394Q326 396 372 398Q428 400 484.50 402Q541 404 602 406L602 324Q542 326 485.50 328Q429 330 373 333Q327 335 276 336L276 62L536 62Q568 62 591 64Q614 66 629 71Q644 76 651.50 85Q659 94 661 107L676 226L742 226M237 908L603 908L603 844L237 844L237 908M398 1112Q386 1124 374 1135Q362 1146 349 1153Q336 1160 319 1160Q295 1160 282 1146Q269 1132 269 1115Q269 1099 277 1087.50Q285 1076 298.50 1066.50Q312 1057 330 1047L473 974L512 974L512 999L398 1112Z"  horiz-adv-x="837" vert-adv-y="1000"  />

      
      <glyph glyph-name="uni1E16" unicode="&#x1E16;" d="M742 226L742 0L69 0L69 62L100 62Q137 62 161 69Q185 76 185 98L185 612Q185 634 161 641Q137 648 100 648L69 648L69 710L715 710L715 509L651 509L638 603Q636 621 622.50 630.50Q609 640 582.50 644Q556 648 513 648L276 648L276 394Q326 396 372 398Q428 400 484.50 402Q541 404 602 406L602 324Q542 326 485.50 328Q429 330 373 333Q327 335 276 336L276 62L536 62Q568 62 591 64Q614 66 629 71Q644 76 651.50 85Q659 94 661 107L676 226L742 226M237 908L603 908L603 844L237 844L237 908M443 1112L329 999L329 974L368 974L511 1047Q529 1057 543 1066.50Q557 1076 564.50 1087.50Q572 1099 572 1115Q572 1132 559 1146Q546 1160 522 1160Q506 1160 492.50 1153Q479 1146 467.50 1135Q456 1124 443 1112Z"  horiz-adv-x="837" vert-adv-y="1000"  />

      
      <glyph glyph-name="uni1E1C" unicode="&#x1E1C;" d="M742 226L742 0L474 0L397-71Q451-72 489-81Q531-92 552-114.50Q573-137 573-173Q573-205 559.50-227Q546-249 523-263Q500-277 472-283Q444-289 415-289Q362-289 319-271.50Q276-254 256-226L300-184Q314-200 331.50-211.50Q349-223 370-229.50Q391-236 415-236Q455-236 474-221Q493-206 493-177Q493-148 468.50-134Q444-120 373-120L337-120L389 0L69 0L69 62L100 62Q137 62 161 69Q185 76 185 98L185 612Q185 634 161 641Q137 648 100 648L69 648L69 710L715 710L715 509L651 509L638 603Q636 621 622.50 630.50Q609 640 582.50 644Q556 648 513 648L276 648L276 394Q326 396 372 398Q428 400 484.50 402Q541 404 602 406L602 324Q542 326 485.50 328Q429 330 373 333Q327 335 276 336L276 62L536 62Q568 62 591 64Q614 66 629 71Q644 76 651.50 85Q659 94 661 107L676 226L742 226M420 797Q358 797 313 815.50Q268 834 243.50 871.50Q219 909 217 965L288 965Q291 936 304.50 915.50Q318 895 346 884Q374 873 420 873Q469 873 498 884Q527 895 540.50 915.50Q554 936 556 965L622 965Q621 909 597 871.50Q573 834 528 815.50Q483 797 420 797Z"  horiz-adv-x="837" vert-adv-y="1000"  />

      
      <glyph glyph-name="uni1EB8" unicode="&#x1EB8;" d="M742 226L742 0L69 0L69 62L100 62Q137 62 161 69Q185 76 185 98L185 612Q185 634 161 641Q137 648 100 648L69 648L69 710L715 710L715 509L651 509L638 603Q636 621 622.50 630.50Q609 640 582.50 644Q556 648 513 648L276 648L276 394Q326 396 372 398Q428 400 484.50 402Q541 404 602 406L602 324Q542 326 485.50 328Q429 330 373 333Q327 335 276 336L276 62L536 62Q568 62 591 64Q614 66 629 71Q644 76 651.50 85Q659 94 661 107L676 226L742 226M415-233Q381-233 363-213.50Q345-194 345-161Q345-127 363-107.50Q381-88 415-88Q448-88 466.50-107.50Q485-127 485-160Q485-194 466.50-213.50Q448-233 415-233Z"  horiz-adv-x="837" vert-adv-y="1000"  />

      
      <glyph glyph-name="uni1EBA" unicode="&#x1EBA;" d="M742 226L742 0L69 0L69 62L100 62Q137 62 161 69Q185 76 185 98L185 612Q185 634 161 641Q137 648 100 648L69 648L69 710L715 710L715 509L651 509L638 603Q636 621 622.50 630.50Q609 640 582.50 644Q556 648 513 648L276 648L276 394Q326 396 372 398Q428 400 484.50 402Q541 404 602 406L602 324Q542 326 485.50 328Q429 330 373 333Q327 335 276 336L276 62L536 62Q568 62 591 64Q614 66 629 71Q644 76 651.50 85Q659 94 661 107L676 226L742 226M247 929L332 929Q336 954 361 969Q386 984 429 984Q475 984 493 970.50Q511 957 511 933Q511 910 495 896Q479 882 449.50 876Q420 870 381 869L381 778L459 778L459 833Q483 836 504 840Q546 849 571 872.50Q596 896 596 938Q596 971 578 995.50Q560 1020 523.50 1034Q487 1048 431 1048Q377 1048 336.50 1033Q296 1018 273 991Q250 964 247 929Z"  horiz-adv-x="837" vert-adv-y="1000"  />

      
      <glyph glyph-name="uni1EBC" unicode="&#x1EBC;" d="M742 226L742 0L69 0L69 62L100 62Q137 62 161 69Q185 76 185 98L185 612Q185 634 161 641Q137 648 100 648L69 648L69 710L715 710L715 509L651 509L638 603Q636 621 622.50 630.50Q609 640 582.50 644Q556 648 513 648L276 648L276 394Q326 396 372 398Q428 400 484.50 402Q541 404 602 406L602 324Q542 326 485.50 328Q429 330 373 333Q327 335 276 336L276 62L536 62Q568 62 591 64Q614 66 629 71Q644 76 651.50 85Q659 94 661 107L676 226L742 226M502 788Q476 788 455 799.50Q434 811 417 828Q400 845 385.50 861.50Q371 878 357.50 889.50Q344 901 330 901Q314 901 304 890Q294 879 288.50 854.50Q283 830 278 789L216 797Q226 868 241 906Q256 944 278.50 958.50Q301 973 333 973Q359 973 380 962Q401 951 418 934.50Q435 918 450.50 901Q466 884 480 873Q494 862 509 862Q525 862 534 873.50Q543 885 549 910Q555 935 562 976L624 968Q613 896 597 857Q581 818 557.50 803Q534 788 502 788Z"  horiz-adv-x="837" vert-adv-y="1000"  />

      
      <glyph glyph-name="uni1EBE" unicode="&#x1EBE;" d="M742 226L742 0L69 0L69 62L100 62Q137 62 161 69Q185 76 185 98L185 612Q185 634 161 641Q137 648 100 648L69 648L69 710L715 710L715 509L651 509L638 603Q636 621 622.50 630.50Q609 640 582.50 644Q556 648 513 648L276 648L276 394Q326 396 372 398Q428 400 484.50 402Q541 404 602 406L602 324Q542 326 485.50 328Q429 330 373 333Q327 335 276 336L276 62L536 62Q568 62 591 64Q614 66 629 71Q644 76 651.50 85Q659 94 661 107L676 226L742 226M462 958L385 958L243 807L243 782L283 782L418 880L557 782L606 782L606 807L462 958M678 1059L569 934L569 909L607 909L746 991Q765 1002 778.50 1012Q792 1022 800 1033.50Q808 1045 808 1058Q808 1078 794.50 1092Q781 1106 755 1106Q739 1106 726 1100Q713 1094 701.50 1083.50Q690 1073 678 1059Z"  horiz-adv-x="837" vert-adv-y="1000"  />

      
      <glyph glyph-name="uni1EC0" unicode="&#x1EC0;" d="M742 226L742 0L69 0L69 62L100 62Q137 62 161 69Q185 76 185 98L185 612Q185 634 161 641Q137 648 100 648L69 648L69 710L715 710L715 509L651 509L638 603Q636 621 622.50 630.50Q609 640 582.50 644Q556 648 513 648L276 648L276 394Q326 396 372 398Q428 400 484.50 402Q541 404 602 406L602 324Q542 326 485.50 328Q429 330 373 333Q327 335 276 336L276 62L536 62Q568 62 591 64Q614 66 629 71Q644 76 651.50 85Q659 94 661 107L676 226L742 226M464 958L387 958L245 807L245 782L285 782L420 880L559 782L608 782L608 807L464 958M631 1071Q619 1085 608 1095Q597 1105 584.50 1111Q572 1117 556 1117Q531 1117 518 1104Q505 1091 505 1074Q505 1059 513 1047Q521 1035 534 1025Q547 1015 563 1005L702 922L740 922L740 947L631 1071Z"  horiz-adv-x="837" vert-adv-y="1000"  />

      
      <glyph glyph-name="uni1EC2" unicode="&#x1EC2;" d="M742 226L742 0L69 0L69 62L100 62Q137 62 161 69Q185 76 185 98L185 612Q185 634 161 641Q137 648 100 648L69 648L69 710L715 710L715 509L651 509L638 603Q636 621 622.50 630.50Q609 640 582.50 644Q556 648 513 648L276 648L276 394Q326 396 372 398Q428 400 484.50 402Q541 404 602 406L602 324Q542 326 485.50 328Q429 330 373 333Q327 335 276 336L276 62L536 62Q568 62 591 64Q614 66 629 71Q644 76 651.50 85Q659 94 661 107L676 226L742 226M485 1048L570 1048Q572 1066 590.50 1079Q609 1092 654 1092Q692 1092 707.50 1081Q723 1070 724 1050Q726 1017 696.50 1004Q667 991 600 990L600 910L678 910L678 949Q692 951 705 953Q738 959 761.50 971.50Q785 984 797 1004.50Q809 1025 809 1054Q808 1100 770.50 1128.50Q733 1157 656 1157Q602 1157 564.50 1142.50Q527 1128 507 1103.50Q487 1079 485 1048M457 958L380 958L238 807L238 782L278 782L413 880L552 782L601 782L601 807L457 958Z"  horiz-adv-x="837" vert-adv-y="1000"  />

      
      <glyph glyph-name="uni1EC4" unicode="&#x1EC4;" d="M742 226L742 0L69 0L69 62L100 62Q137 62 161 69Q185 76 185 98L185 612Q185 634 161 641Q137 648 100 648L69 648L69 710L715 710L715 509L651 509L638 603Q636 621 622.50 630.50Q609 640 582.50 644Q556 648 513 648L276 648L276 394Q326 396 372 398Q428 400 484.50 402Q541 404 602 406L602 324Q542 326 485.50 328Q429 330 373 333Q327 335 276 336L276 62L536 62Q568 62 591 64Q614 66 629 71Q644 76 651.50 85Q659 94 661 107L676 226L742 226M495 995Q463 995 440.50 1007Q418 1019 401 1035.50Q384 1052 369.50 1064Q355 1076 338 1076Q315 1076 303.50 1058Q292 1040 281 994L218 1004Q228 1058 245.50 1088Q263 1118 288 1130.50Q313 1143 345 1143Q377 1143 398.50 1131Q420 1119 436.50 1104Q453 1089 468 1077Q483 1065 501 1065Q524 1065 536.50 1083Q549 1101 559 1148L622 1138Q611 1081 593.50 1050Q576 1019 551.50 1007Q527 995 495 995M458 937L599 807L599 782L550 782L414 865L281 782L241 782L241 807L381 937L458 937Z"  horiz-adv-x="837" vert-adv-y="1000"  />

      
      <glyph glyph-name="uni1EC6" unicode="&#x1EC6;" d="M742 226L742 0L69 0L69 62L100 62Q137 62 161 69Q185 76 185 98L185 612Q185 634 161 641Q137 648 100 648L69 648L69 710L715 710L715 509L651 509L638 603Q636 621 622.50 630.50Q609 640 582.50 644Q556 648 513 648L276 648L276 394Q326 396 372 398Q428 400 484.50 402Q541 404 602 406L602 324Q542 326 485.50 328Q429 330 373 333Q327 335 276 336L276 62L536 62Q568 62 591 64Q614 66 629 71Q644 76 651.50 85Q659 94 661 107L676 226L742 226M457 958L380 958L238 807L238 782L278 782L413 880L552 782L601 782L601 807L457 958M415-233Q381-233 363-213.50Q345-194 345-161Q345-127 363-107.50Q381-88 415-88Q448-88 466.50-107.50Q485-127 485-160Q485-194 466.50-213.50Q448-233 415-233Z"  horiz-adv-x="837" vert-adv-y="1000"  />

      
      <glyph glyph-name="uni46" unicode="&#x46;" d="M276 648L276 386Q326 388 372 390Q428 392 484.50 394Q541 396 602 398L602 316Q542 318 485.50 320Q429 322 373 325Q327 327 276 328L276 72Q276 69 284 67.50Q292 66 305 64.50Q318 63 333.50 62.50Q349 62 363 62L415 62L415 0L69 0L69 62L100 62Q137 62 161 69Q185 76 185 98L185 612Q185 634 161 641Q137 648 100 648L69 648L69 710L715 710L715 506L651 506L638 603Q636 621 622.50 630.50Q609 640 582.50 644Q556 648 513 648L276 648Z"  horiz-adv-x="785" vert-adv-y="1000"  />

      
      <glyph glyph-name="uni47" unicode="&#x47;" d="M830 259L830 102Q813 83 782 60.50Q751 38 706.50 19Q662 0 605-12.50Q548-25 479-25Q386-25 311-1Q236 23 182.50 71Q129 119 100.50 190.50Q72 262 72 356Q72 450 102.50 521Q133 592 187 639.50Q241 687 314 711Q387 735 472 735Q554 735 620.50 710.50Q687 686 732 638Q747 621 759 602L769 720L840 720L840 478L766 478Q744 538 704 580.50Q664 623 606 646Q548 669 472 669Q402 669 346 649.50Q290 630 250.50 591.50Q211 553 190.50 494Q170 435 170 356Q170 277 190 217.50Q210 158 249.50 119Q289 80 346.50 60.50Q404 41 479 41Q558 41 611 54Q664 67 696 84Q728 101 743 113L743 259Q743 281 719 288Q695 295 658 295L583 295L583 357L956 357L956 295L915 295Q878 295 854 288Q830 281 830 259Z"  horiz-adv-x="983" vert-adv-y="1000"  />

      
      <glyph glyph-name="uni011C" unicode="&#x011C;" d="M830 259L830 102Q813 83 782 60.50Q751 38 706.50 19Q662 0 605-12.50Q548-25 479-25Q386-25 311-1Q236 23 182.50 71Q129 119 100.50 190.50Q72 262 72 356Q72 450 102.50 521Q133 592 187 639.50Q241 687 314 711Q387 735 472 735Q554 735 620.50 710.50Q687 686 732 638Q747 621 759 602L769 720L840 720L840 478L766 478Q744 538 704 580.50Q664 623 606 646Q548 669 472 669Q402 669 346 649.50Q290 630 250.50 591.50Q211 553 190.50 494Q170 435 170 356Q170 277 190 217.50Q210 158 249.50 119Q289 80 346.50 60.50Q404 41 479 41Q558 41 611 54Q664 67 696 84Q728 101 743 113L743 259Q743 281 719 288Q695 295 658 295L583 295L583 357L956 357L956 295L915 295Q878 295 854 288Q830 281 830 259M518 958L441 958L299 807L299 782L339 782L474 880L613 782L662 782L662 807L518 958Z"  horiz-adv-x="983" vert-adv-y="1000"  />

      
      <glyph glyph-name="uni011E" unicode="&#x011E;" d="M830 259L830 102Q813 83 782 60.50Q751 38 706.50 19Q662 0 605-12.50Q548-25 479-25Q386-25 311-1Q236 23 182.50 71Q129 119 100.50 190.50Q72 262 72 356Q72 450 102.50 521Q133 592 187 639.50Q241 687 314 711Q387 735 472 735Q554 735 620.50 710.50Q687 686 732 638Q747 621 759 602L769 720L840 720L840 478L766 478Q744 538 704 580.50Q664 623 606 646Q548 669 472 669Q402 669 346 649.50Q290 630 250.50 591.50Q211 553 190.50 494Q170 435 170 356Q170 277 190 217.50Q210 158 249.50 119Q289 80 346.50 60.50Q404 41 479 41Q558 41 611 54Q664 67 696 84Q728 101 743 113L743 259Q743 281 719 288Q695 295 658 295L583 295L583 357L956 357L956 295L915 295Q878 295 854 288Q830 281 830 259M481 797Q544 797 589 815.50Q634 834 658 871.50Q682 909 683 965L617 965Q615 936 601.50 915.50Q588 895 559 884Q530 873 481 873Q435 873 407 884Q379 895 365.50 915.50Q352 936 349 965L278 965Q280 909 304.50 871.50Q329 834 374 815.50Q419 797 481 797Z"  horiz-adv-x="983" vert-adv-y="1000"  />

      
      <glyph glyph-name="uni0120" unicode="&#x0120;" d="M830 259L830 102Q813 83 782 60.50Q751 38 706.50 19Q662 0 605-12.50Q548-25 479-25Q386-25 311-1Q236 23 182.50 71Q129 119 100.50 190.50Q72 262 72 356Q72 450 102.50 521Q133 592 187 639.50Q241 687 314 711Q387 735 472 735Q554 735 620.50 710.50Q687 686 732 638Q747 621 759 602L769 720L840 720L840 478L766 478Q744 538 704 580.50Q664 623 606 646Q548 669 472 669Q402 669 346 649.50Q290 630 250.50 591.50Q211 553 190.50 494Q170 435 170 356Q170 277 190 217.50Q210 158 249.50 119Q289 80 346.50 60.50Q404 41 479 41Q558 41 611 54Q664 67 696 84Q728 101 743 113L743 259Q743 281 719 288Q695 295 658 295L583 295L583 357L956 357L956 295L915 295Q878 295 854 288Q830 281 830 259M481 783Q447 783 429 802.50Q411 822 411 855Q411 889 429 908.50Q447 928 481 928Q514 928 532.50 908.50Q551 889 551 856Q551 822 532.50 802.50Q514 783 481 783Z"  horiz-adv-x="983" vert-adv-y="1000"  />

      
      <glyph glyph-name="uni0122" unicode="&#x0122;" d="M830 259L830 102Q813 83 782 60.50Q751 38 706.50 19Q662 0 605-12.50Q548-25 479-25Q386-25 311-1Q236 23 182.50 71Q129 119 100.50 190.50Q72 262 72 356Q72 450 102.50 521Q133 592 187 639.50Q241 687 314 711Q387 735 472 735Q554 735 620.50 710.50Q687 686 732 638Q747 621 759 602L769 720L840 720L840 478L766 478Q744 538 704 580.50Q664 623 606 646Q548 669 472 669Q402 669 346 649.50Q290 630 250.50 591.50Q211 553 190.50 494Q170 435 170 356Q170 277 190 217.50Q210 158 249.50 119Q289 80 346.50 60.50Q404 41 479 41Q558 41 611 54Q664 67 696 84Q728 101 743 113L743 259Q743 281 719 288Q695 295 658 295L583 295L583 357L956 357L956 295L915 295Q878 295 854 288Q830 281 830 259M407-345L386-290Q430-281 455-267Q480-253 491-231Q497-219 500-203Q495-205 491-206Q479-210 464-210Q436-210 421.50-194.50Q407-179 407-152Q407-126 424-108.50Q441-91 476-91Q517-91 535.50-113Q554-135 554-177Q554-223 537.50-255.50Q521-288 488-309.50Q455-331 407-345Z"  horiz-adv-x="983" vert-adv-y="1000"  />

      
      <glyph glyph-name="uni01E6" unicode="&#x01E6;" d="M830 259L830 102Q813 83 782 60.50Q751 38 706.50 19Q662 0 605-12.50Q548-25 479-25Q386-25 311-1Q236 23 182.50 71Q129 119 100.50 190.50Q72 262 72 356Q72 450 102.50 521Q133 592 187 639.50Q241 687 314 711Q387 735 472 735Q554 735 620.50 710.50Q687 686 732 638Q747 621 759 602L769 720L840 720L840 478L766 478Q744 538 704 580.50Q664 623 606 646Q548 669 472 669Q402 669 346 649.50Q290 630 250.50 591.50Q211 553 190.50 494Q170 435 170 356Q170 277 190 217.50Q210 158 249.50 119Q289 80 346.50 60.50Q404 41 479 41Q558 41 611 54Q664 67 696 84Q728 101 743 113L743 259Q743 281 719 288Q695 295 658 295L583 295L583 357L956 357L956 295L915 295Q878 295 854 288Q830 281 830 259M443 782L299 933L299 958L348 958L487 860L622 958L662 958L662 933L520 782L443 782Z"  horiz-adv-x="983" vert-adv-y="1000"  />

      
      <glyph glyph-name="uni1E20" unicode="&#x1E20;" d="M830 259L830 102Q813 83 782 60.50Q751 38 706.50 19Q662 0 605-12.50Q548-25 479-25Q386-25 311-1Q236 23 182.50 71Q129 119 100.50 190.50Q72 262 72 356Q72 450 102.50 521Q133 592 187 639.50Q241 687 314 711Q387 735 472 735Q554 735 620.50 710.50Q687 686 732 638Q747 621 759 602L769 720L840 720L840 478L766 478Q744 538 704 580.50Q664 623 606 646Q548 669 472 669Q402 669 346 649.50Q290 630 250.50 591.50Q211 553 190.50 494Q170 435 170 356Q170 277 190 217.50Q210 158 249.50 119Q289 80 346.50 60.50Q404 41 479 41Q558 41 611 54Q664 67 696 84Q728 101 743 113L743 259Q743 281 719 288Q695 295 658 295L583 295L583 357L956 357L956 295L915 295Q878 295 854 288Q830 281 830 259M298 908L664 908L664 844L298 844L298 908Z"  horiz-adv-x="983" vert-adv-y="1000"  />

      
      <glyph glyph-name="uni48" unicode="&#x48;" d="M69 0L69 62L100 62Q137 62 161 69Q185 76 185 98L185 612Q185 634 161 641Q137 648 100 648L69 648L69 710L392 710L392 648L363 648Q349 648 333.50 647.50Q318 647 305 645.50Q292 644 284 642.50Q276 641 276 638L276 397L751 397L751 638Q751 641 743 642.50Q735 644 722 645.50Q709 647 693.50 647.50Q678 648 664 648L635 648L635 710L958 710L958 648L927 648Q890 648 866 641Q842 634 842 612L842 98Q842 76 866 69Q890 62 927 62L958 62L958 0L635 0L635 62L664 62Q678 62 693.50 62.50Q709 63 722 64.50Q735 66 743 67.50Q751 69 751 72L751 335L276 335L276 72Q276 69 284 67.50Q292 66 305 64.50Q318 63 333.50 62.50Q349 62 363 62L392 62L392 0L69 0Z"  horiz-adv-x="1027" vert-adv-y="1000"  />

      
      <glyph glyph-name="uni0124" unicode="&#x0124;" d="M69 0L69 62L100 62Q137 62 161 69Q185 76 185 98L185 612Q185 634 161 641Q137 648 100 648L69 648L69 710L392 710L392 648L363 648Q349 648 333.50 647.50Q318 647 305 645.50Q292 644 284 642.50Q276 641 276 638L276 397L751 397L751 638Q751 641 743 642.50Q735 644 722 645.50Q709 647 693.50 647.50Q678 648 664 648L635 648L635 710L958 710L958 648L927 648Q890 648 866 641Q842 634 842 612L842 98Q842 76 866 69Q890 62 927 62L958 62L958 0L635 0L635 62L664 62Q678 62 693.50 62.50Q709 63 722 64.50Q735 66 743 67.50Q751 69 751 72L751 335L276 335L276 72Q276 69 284 67.50Q292 66 305 64.50Q318 63 333.50 62.50Q349 62 363 62L392 62L392 0L69 0M551 958L474 958L332 807L332 782L372 782L507 880L646 782L695 782L695 807L551 958Z"  horiz-adv-x="1027" vert-adv-y="1000"  />

      
      <glyph glyph-name="uni1E24" unicode="&#x1E24;" d="M69 0L69 62L100 62Q137 62 161 69Q185 76 185 98L185 612Q185 634 161 641Q137 648 100 648L69 648L69 710L392 710L392 648L363 648Q349 648 333.50 647.50Q318 647 305 645.50Q292 644 284 642.50Q276 641 276 638L276 397L751 397L751 638Q751 641 743 642.50Q735 644 722 645.50Q709 647 693.50 647.50Q678 648 664 648L635 648L635 710L958 710L958 648L927 648Q890 648 866 641Q842 634 842 612L842 98Q842 76 866 69Q890 62 927 62L958 62L958 0L635 0L635 62L664 62Q678 62 693.50 62.50Q709 63 722 64.50Q735 66 743 67.50Q751 69 751 72L751 335L276 335L276 72Q276 69 284 67.50Q292 66 305 64.50Q318 63 333.50 62.50Q349 62 363 62L392 62L392 0L69 0M514-233Q480-233 462-213.50Q444-194 444-161Q444-127 462-107.50Q480-88 514-88Q547-88 565.50-107.50Q584-127 584-160Q584-194 565.50-213.50Q547-233 514-233Z"  horiz-adv-x="1027" vert-adv-y="1000"  />

      
      <glyph glyph-name="uni1E2A" unicode="&#x1E2A;" d="M69 0L69 62L100 62Q137 62 161 69Q185 76 185 98L185 612Q185 634 161 641Q137 648 100 648L69 648L69 710L392 710L392 648L363 648Q349 648 333.50 647.50Q318 647 305 645.50Q292 644 284 642.50Q276 641 276 638L276 397L751 397L751 638Q751 641 743 642.50Q735 644 722 645.50Q709 647 693.50 647.50Q678 648 664 648L635 648L635 710L958 710L958 648L927 648Q890 648 866 641Q842 634 842 612L842 98Q842 76 866 69Q890 62 927 62L958 62L958 0L635 0L635 62L664 62Q678 62 693.50 62.50Q709 63 722 64.50Q735 66 743 67.50Q751 69 751 72L751 335L276 335L276 72Q276 69 284 67.50Q292 66 305 64.50Q318 63 333.50 62.50Q349 62 363 62L392 62L392 0L69 0M514-255Q566-255 608-236.50Q650-218 674.50-181Q699-144 699-89L633-89Q632-122 617.50-143Q603-164 577-174Q551-184 517-184Q483-184 457-174Q431-164 416-143Q401-122 400-89L329-89Q329-144 353.50-181Q378-218 420-236.50Q462-255 514-255Z"  horiz-adv-x="1027" vert-adv-y="1000"  />

      
      <glyph glyph-name="uni49" unicode="&#x49;" d="M195 98L195 612Q195 634 171 641Q147 648 110 648L69 648L69 710L412 710L412 648L371 648Q334 648 310 641Q286 634 286 612L286 98Q286 76 310 69Q334 62 371 62L412 62L412 0L69 0L69 62L110 62Q147 62 171 69Q195 76 195 98Z"  horiz-adv-x="482" vert-adv-y="1000"  />

      
      <glyph glyph-name="unicc" unicode="&#xcc;" d="M195 98L195 612Q195 634 171 641Q147 648 110 648L69 648L69 710L412 710L412 648L371 648Q334 648 310 641Q286 634 286 612L286 98Q286 76 310 69Q334 62 371 62L412 62L412 0L69 0L69 62L110 62Q147 62 171 69Q195 76 195 98M229 931Q217 943 205 954Q193 965 180 972Q167 979 150 979Q126 979 113 965Q100 951 100 934Q100 918 108 906.50Q116 895 129.50 885.50Q143 876 161 866L304 793L343 793L343 818L229 931Z"  horiz-adv-x="482" vert-adv-y="1000"  />

      
      <glyph glyph-name="unicd" unicode="&#xcd;" d="M195 98L195 612Q195 634 171 641Q147 648 110 648L69 648L69 710L412 710L412 648L371 648Q334 648 310 641Q286 634 286 612L286 98Q286 76 310 69Q334 62 371 62L412 62L412 0L69 0L69 62L110 62Q147 62 171 69Q195 76 195 98M254 931L140 818L140 793L179 793L322 866Q340 876 354 885.50Q368 895 375.50 906.50Q383 918 383 934Q383 951 370 965Q357 979 333 979Q317 979 303.50 972Q290 965 278.50 954Q267 943 254 931Z"  horiz-adv-x="482" vert-adv-y="1000"  />

      
      <glyph glyph-name="unice" unicode="&#xce;" d="M195 98L195 612Q195 634 171 641Q147 648 110 648L69 648L69 710L412 710L412 648L371 648Q334 648 310 641Q286 634 286 612L286 98Q286 76 310 69Q334 62 371 62L412 62L412 0L69 0L69 62L110 62Q147 62 171 69Q195 76 195 98M279 958L202 958L60 807L60 782L100 782L235 880L374 782L423 782L423 807L279 958Z"  horiz-adv-x="482" vert-adv-y="1000"  />

      
      <glyph glyph-name="unicf" unicode="&#xcf;" d="M195 98L195 612Q195 634 171 641Q147 648 110 648L69 648L69 710L412 710L412 648L371 648Q334 648 310 641Q286 634 286 612L286 98Q286 76 310 69Q334 62 371 62L412 62L412 0L69 0L69 62L110 62Q147 62 171 69Q195 76 195 98M177 856Q177 823 158 804.50Q139 786 105 786Q72 786 53.50 804.50Q35 823 35 856Q35 890 53.50 908.50Q72 927 106 927Q139 927 158 908.50Q177 890 177 856M449 856Q449 823 430 804.50Q411 786 378 786Q344 786 325.50 804.50Q307 823 307 856Q307 890 325.50 908.50Q344 927 378 927Q411 927 430 908.50Q449 890 449 856Z"  horiz-adv-x="482" vert-adv-y="1000"  />

      
      <glyph glyph-name="uni0128" unicode="&#x0128;" d="M195 98L195 612Q195 634 171 641Q147 648 110 648L69 648L69 710L412 710L412 648L371 648Q334 648 310 641Q286 634 286 612L286 98Q286 76 310 69Q334 62 371 62L412 62L412 0L69 0L69 62L110 62Q147 62 171 69Q195 76 195 98M324 788Q298 788 277 799.50Q256 811 239 828Q222 845 207.50 861.50Q193 878 179.50 889.50Q166 901 152 901Q136 901 126 890Q116 879 110.50 854.50Q105 830 100 789L38 797Q48 868 63 906Q78 944 100.50 958.50Q123 973 155 973Q181 973 202 962Q223 951 240 934.50Q257 918 272.50 901Q288 884 302 873Q316 862 331 862Q347 862 356 873.50Q365 885 371 910Q377 935 384 976L446 968Q435 896 419 857Q403 818 379.50 803Q356 788 324 788Z"  horiz-adv-x="482" vert-adv-y="1000"  />

      
      <glyph glyph-name="uni012A" unicode="&#x012A;" d="M195 98L195 612Q195 634 171 641Q147 648 110 648L69 648L69 710L412 710L412 648L371 648Q334 648 310 641Q286 634 286 612L286 98Q286 76 310 69Q334 62 371 62L412 62L412 0L69 0L69 62L110 62Q147 62 171 69Q195 76 195 98M59 908L425 908L425 844L59 844L59 908Z"  horiz-adv-x="482" vert-adv-y="1000"  />

      
      <glyph glyph-name="uni012C" unicode="&#x012C;" d="M195 98L195 612Q195 634 171 641Q147 648 110 648L69 648L69 710L412 710L412 648L371 648Q334 648 310 641Q286 634 286 612L286 98Q286 76 310 69Q334 62 371 62L412 62L412 0L69 0L69 62L110 62Q147 62 171 69Q195 76 195 98M242 797Q305 797 350 815.50Q395 834 419 871.50Q443 909 444 965L378 965Q376 936 362.50 915.50Q349 895 320 884Q291 873 242 873Q196 873 168 884Q140 895 126.50 915.50Q113 936 110 965L39 965Q41 909 65.50 871.50Q90 834 135 815.50Q180 797 242 797Z"  horiz-adv-x="482" vert-adv-y="1000"  />

      
      <glyph glyph-name="uni012E" unicode="&#x012E;" d="M195 98L195 612Q195 634 171 641Q147 648 110 648L69 648L69 710L412 710L412 648L371 648Q334 648 310 641Q286 634 286 612L286 98Q286 76 310 69Q334 62 371 62L412 62L412 0L364 0L366-2Q326-34 299.50-57.50Q273-81 257.50-98.50Q242-116 235.50-131.50Q229-147 229-162Q229-185 242.50-195.50Q256-206 284-206Q316-206 341.50-191Q367-176 389-153L424-191Q396-222 357.50-241.50Q319-261 261-261Q202-261 169-239.50Q136-218 136-173Q136-149 144.50-129.50Q153-110 175-89.50Q197-69 237-41Q262-24 297 0L69 0L69 62L110 62Q147 62 171 69Q195 76 195 98Z"  horiz-adv-x="482" vert-adv-y="1000"  />

      
      <glyph glyph-name="uni0130" unicode="&#x0130;" d="M195 98L195 612Q195 634 171 641Q147 648 110 648L69 648L69 710L412 710L412 648L371 648Q334 648 310 641Q286 634 286 612L286 98Q286 76 310 69Q334 62 371 62L412 62L412 0L69 0L69 62L110 62Q147 62 171 69Q195 76 195 98M242 783Q208 783 190 802.50Q172 822 172 855Q172 889 190 908.50Q208 928 242 928Q275 928 293.50 908.50Q312 889 312 856Q312 822 293.50 802.50Q275 783 242 783Z"  horiz-adv-x="482" vert-adv-y="1000"  />

      
      <glyph glyph-name="uni01CF" unicode="&#x01CF;" d="M195 98L195 612Q195 634 171 641Q147 648 110 648L69 648L69 710L412 710L412 648L371 648Q334 648 310 641Q286 634 286 612L286 98Q286 76 310 69Q334 62 371 62L412 62L412 0L69 0L69 62L110 62Q147 62 171 69Q195 76 195 98M204 782L60 933L60 958L109 958L248 860L383 958L423 958L423 933L281 782L204 782Z"  horiz-adv-x="482" vert-adv-y="1000"  />

      
      <glyph glyph-name="uni0208" unicode="&#x0208;" d="M313 922L381 818L381 793L344 793L246 858Q222 874 207.50 890Q193 906 193 928Q193 945 206.50 958.50Q220 972 244 972Q261 972 272.50 965.50Q284 959 293.50 948Q303 937 313 922M105 922L171 818L171 793L133 793L35 858Q11 874-3.50 890Q-18 906-18 928Q-18 945-4.50 958.50Q9 972 34 972Q50 972 62.50 965.50Q75 959 85.50 948Q96 937 105 922M195 98L195 612Q195 634 171 641Q147 648 110 648L69 648L69 710L412 710L412 648L371 648Q334 648 310 641Q286 634 286 612L286 98Q286 76 310 69Q334 62 371 62L412 62L412 0L69 0L69 62L110 62Q147 62 171 69Q195 76 195 98Z"  horiz-adv-x="482" vert-adv-y="1000"  />

      
      <glyph glyph-name="uni020A" unicode="&#x020A;" d="M195 98L195 612Q195 634 171 641Q147 648 110 648L69 648L69 710L412 710L412 648L371 648Q334 648 310 641Q286 634 286 612L286 98Q286 76 310 69Q334 62 371 62L412 62L412 0L69 0L69 62L110 62Q147 62 171 69Q195 76 195 98M241 965Q304 965 348.50 946.50Q393 928 417.50 890.50Q442 853 444 797L373 797Q370 826 356.50 846.50Q343 867 315 878Q287 889 241 889Q192 889 163 878Q134 867 120.50 846.50Q107 826 105 797L39 797Q40 853 64 890.50Q88 928 133 946.50Q178 965 241 965Z"  horiz-adv-x="482" vert-adv-y="1000"  />

      
      <glyph glyph-name="uni1E2E" unicode="&#x1E2E;" d="M195 98L195 612Q195 634 171 641Q147 648 110 648L69 648L69 710L412 710L412 648L371 648Q334 648 310 641Q286 634 286 612L286 98Q286 76 310 69Q334 62 371 62L412 62L412 0L69 0L69 62L110 62Q147 62 171 69Q195 76 195 98M177 856Q177 823 158 804.50Q139 786 105 786Q72 786 53.50 804.50Q35 823 35 856Q35 890 53.50 908.50Q72 927 106 927Q139 927 158 908.50Q177 890 177 856M449 856Q449 823 430 804.50Q411 786 378 786Q344 786 325.50 804.50Q307 823 307 856Q307 890 325.50 908.50Q344 927 378 927Q411 927 430 908.50Q449 890 449 856M303 1091L189 978L189 953L228 953L371 1026Q389 1036 403 1045.50Q417 1055 424.50 1066.50Q432 1078 432 1094Q432 1111 419 1125Q406 1139 382 1139Q366 1139 352.50 1132Q339 1125 327.50 1114Q316 1103 303 1091Z"  horiz-adv-x="482" vert-adv-y="1000"  />

      
      <glyph glyph-name="uni1ECA" unicode="&#x1ECA;" d="M195 98L195 612Q195 634 171 641Q147 648 110 648L69 648L69 710L412 710L412 648L371 648Q334 648 310 641Q286 634 286 612L286 98Q286 76 310 69Q334 62 371 62L412 62L412 0L69 0L69 62L110 62Q147 62 171 69Q195 76 195 98M242-233Q208-233 190-213.50Q172-194 172-161Q172-127 190-107.50Q208-88 242-88Q275-88 293.50-107.50Q312-127 312-160Q312-194 293.50-213.50Q275-233 242-233Z"  horiz-adv-x="482" vert-adv-y="1000"  />

      
      <glyph glyph-name="uni4a" unicode="&#x4a;" d="M352 710L705 710L705 648L664 648Q627 648 603 641Q579 634 579 612L579 239Q579 168 560.50 118Q542 68 507 36.50Q472 5 422.50-10Q373-25 311-25Q250-25 203.50-13.50Q157-2 125.50 13Q94 28 76 41L76 225L171 225L171 68Q175 65 180 63Q201 51 233.50 43Q266 35 311 35Q365 35 404.50 52Q444 69 466 113.50Q488 158 488 239L488 612Q488 627 477 634.50Q466 642 447 645Q428 648 403 648L352 648L352 710Z"  horiz-adv-x="774" vert-adv-y="1000"  />

      
      <glyph glyph-name="uni0134" unicode="&#x0134;" d="M352 710L705 710L705 648L664 648Q627 648 603 641Q579 634 579 612L579 239Q579 168 560.50 118Q542 68 507 36.50Q472 5 422.50-10Q373-25 311-25Q250-25 203.50-13.50Q157-2 125.50 13Q94 28 76 41L76 225L171 225L171 68Q175 65 180 63Q201 51 233.50 43Q266 35 311 35Q365 35 404.50 52Q444 69 466 113.50Q488 158 488 239L488 612Q488 627 477 634.50Q466 642 447 645Q428 648 403 648L352 648L352 710M558 958L481 958L339 807L339 782L379 782L514 880L653 782L702 782L702 807L558 958Z"  horiz-adv-x="774" vert-adv-y="1000"  />

      
      <glyph glyph-name="uni4b" unicode="&#x4b;" d="M549 0L549 62L585 62Q602 62 617 63Q632 64 642 66.50Q652 69 654 72L311 343L311 373L667 639Q665 642 656.50 644Q648 646 632 647Q616 648 590 648L559 648L559 710L859 710L859 648L825 648Q809 648 795 644.50Q781 641 766 634.50Q751 628 734 614L408 372L751 102Q773 85 793.50 76.50Q814 68 834 65Q854 62 873 62L895 62L895 0L549 0M69 0L69 62L100 62Q137 62 161 69Q185 76 185 98L185 612Q185 634 161 641Q137 648 100 648L69 648L69 710L392 710L392 648L363 648Q349 648 333.50 647.50Q318 647 305 645.50Q292 644 284 642.50Q276 641 276 638L276 72Q276 69 284 67.50Q292 66 305 64.50Q318 63 333.50 62.50Q349 62 363 62L392 62L392 0L69 0Z"  horiz-adv-x="933" vert-adv-y="1000"  />

      
      <glyph glyph-name="uni0136" unicode="&#x0136;" d="M549 0L549 62L585 62Q602 62 617 63Q632 64 642 66.50Q652 69 654 72L311 343L311 373L667 639Q665 642 656.50 644Q648 646 632 647Q616 648 590 648L559 648L559 710L859 710L859 648L825 648Q809 648 795 644.50Q781 641 766 634.50Q751 628 734 614L408 372L751 102Q773 85 793.50 76.50Q814 68 834 65Q854 62 873 62L895 62L895 0L549 0M69 0L69 62L100 62Q137 62 161 69Q185 76 185 98L185 612Q185 634 161 641Q137 648 100 648L69 648L69 710L392 710L392 648L363 648Q349 648 333.50 647.50Q318 647 305 645.50Q292 644 284 642.50Q276 641 276 638L276 72Q276 69 284 67.50Q292 66 305 64.50Q318 63 333.50 62.50Q349 62 363 62L392 62L392 0L69 0M407-345L386-290Q430-281 455-267Q480-253 491-231Q497-219 500-203Q495-205 491-206Q479-210 464-210Q436-210 421.50-194.50Q407-179 407-152Q407-126 424-108.50Q441-91 476-91Q517-91 535.50-113Q554-135 554-177Q554-223 537.50-255.50Q521-288 488-309.50Q455-331 407-345Z"  horiz-adv-x="933" vert-adv-y="1000"  />

      
      <glyph glyph-name="uni4c" unicode="&#x4c;" d="M407 710L69 710L69 648L100 648Q137 648 161 641Q185 634 185 612L185 98Q185 76 161 69Q137 62 100 62L69 62L69 0L719 0L719 236L654 236L637 108Q635 90 622 80Q609 70 582.50 66Q556 62 513 62L276 62L276 612Q276 634 300 641Q324 648 361 648L407 648L407 710Z"  horiz-adv-x="791" vert-adv-y="1000"  />

      
      <glyph glyph-name="uni0139" unicode="&#x0139;" d="M407 710L69 710L69 648L100 648Q137 648 161 641Q185 634 185 612L185 98Q185 76 161 69Q137 62 100 62L69 62L69 0L719 0L719 236L654 236L637 108Q635 90 622 80Q609 70 582.50 66Q556 62 513 62L276 62L276 612Q276 634 300 641Q324 648 361 648L407 648L407 710M242 931L128 818L128 793L167 793L310 866Q328 876 342 885.50Q356 895 363.50 906.50Q371 918 371 934Q371 951 358 965Q345 979 321 979Q305 979 291.50 972Q278 965 266.50 954Q255 943 242 931Z"  horiz-adv-x="791" vert-adv-y="1000"  />

      
      <glyph glyph-name="uni013B" unicode="&#x013B;" d="M407 710L69 710L69 648L100 648Q137 648 161 641Q185 634 185 612L185 98Q185 76 161 69Q137 62 100 62L69 62L69 0L719 0L719 236L654 236L637 108Q635 90 622 80Q609 70 582.50 66Q556 62 513 62L276 62L276 612Q276 634 300 641Q324 648 361 648L407 648L407 710M340-345L319-290Q363-281 388-267Q413-253 424-231Q430-219 433-203Q428-205 424-206Q412-210 397-210Q369-210 354.50-194.50Q340-179 340-152Q340-126 357-108.50Q374-91 409-91Q450-91 468.50-113Q487-135 487-177Q487-223 470.50-255.50Q454-288 421-309.50Q388-331 340-345Z"  horiz-adv-x="791" vert-adv-y="1000"  />

      
      <glyph glyph-name="uni013D" unicode="&#x013D;" d="M407 710L69 710L69 648L100 648Q137 648 161 641Q185 634 185 612L185 98Q185 76 161 69Q137 62 100 62L69 62L69 0L719 0L719 236L654 236L637 108Q635 90 622 80Q609 70 582.50 66Q556 62 513 62L276 62L276 612Q276 634 300 641Q324 648 361 648L407 648L407 710M537 517L603 710L494 710L477 541L477 517L537 517Z"  horiz-adv-x="791" vert-adv-y="1000"  />

      
      <glyph glyph-name="uni1E36" unicode="&#x1E36;" d="M407 710L69 710L69 648L100 648Q137 648 161 641Q185 634 185 612L185 98Q185 76 161 69Q137 62 100 62L69 62L69 0L719 0L719 236L654 236L637 108Q635 90 622 80Q609 70 582.50 66Q556 62 513 62L276 62L276 612Q276 634 300 641Q324 648 361 648L407 648L407 710M414-233Q380-233 362-213.50Q344-194 344-161Q344-127 362-107.50Q380-88 414-88Q447-88 465.50-107.50Q484-127 484-160Q484-194 465.50-213.50Q447-233 414-233Z"  horiz-adv-x="791" vert-adv-y="1000"  />

      
      <glyph glyph-name="uni1E3A" unicode="&#x1E3A;" d="M407 710L69 710L69 648L100 648Q137 648 161 641Q185 634 185 612L185 98Q185 76 161 69Q137 62 100 62L69 62L69 0L719 0L719 236L654 236L637 108Q635 90 622 80Q609 70 582.50 66Q556 62 513 62L276 62L276 612Q276 634 300 641Q324 648 361 648L407 648L407 710M231-125L597-125L597-189L231-189L231-125Z"  horiz-adv-x="791" vert-adv-y="1000"  />

      
      <glyph glyph-name="uni4d" unicode="&#x4d;" d="M71 0L71 62L102 62Q127 62 146 65Q165 68 176 76Q187 84 187 98L187 612Q187 627 176 634.50Q165 642 146 645Q127 648 102 648L71 648L71 710L334 710L596 104L862 710L1112 710L1112 648L1081 648Q1044 648 1020 641Q996 634 996 612L996 98Q996 76 1020 69Q1044 62 1081 62L1112 62L1112 0L792 0L792 62L821 62Q840 62 860 63Q880 64 894 66.50Q908 69 908 72L908 655L617-2L548-2L259 655L259 72Q259 69 273 66.50Q287 64 307 63Q327 62 346 62L351 62L351 0L71 0Z"  horiz-adv-x="1183" vert-adv-y="1000"  />

      
      <glyph glyph-name="uni1E42" unicode="&#x1E42;" d="M71 0L71 62L102 62Q127 62 146 65Q165 68 176 76Q187 84 187 98L187 612Q187 627 176 634.50Q165 642 146 645Q127 648 102 648L71 648L71 710L334 710L596 104L862 710L1112 710L1112 648L1081 648Q1044 648 1020 641Q996 634 996 612L996 98Q996 76 1020 69Q1044 62 1081 62L1112 62L1112 0L792 0L792 62L821 62Q840 62 860 63Q880 64 894 66.50Q908 69 908 72L908 655L617-2L548-2L259 655L259 72Q259 69 273 66.50Q287 64 307 63Q327 62 346 62L351 62L351 0L71 0M583-233Q549-233 531-213.50Q513-194 513-161Q513-127 531-107.50Q549-88 583-88Q616-88 634.50-107.50Q653-127 653-160Q653-194 634.50-213.50Q616-233 583-233Z"  horiz-adv-x="1183" vert-adv-y="1000"  />

      
      <glyph glyph-name="uni4e" unicode="&#x4e;" d="M71 0L71 62L102 62Q127 62 146 65Q165 68 176 76Q187 84 187 98L187 612Q187 627 176 634.50Q165 642 146 645Q127 648 102 648L71 648L71 710L316 710L753 106L753 638Q753 642 739 644Q725 646 705 647Q685 648 666 648L637 648L637 710L941 710L941 648L910 648Q886 648 866.50 645Q847 642 836 634.50Q825 627 825 612L825 0L721 0L259 639L259 72Q259 69 273 66.50Q287 64 307 63Q327 62 346 62L375 62L375 0L71 0Z"  horiz-adv-x="1003" vert-adv-y="1000"  />

      
      <glyph glyph-name="unid1" unicode="&#xd1;" d="M71 0L71 62L102 62Q127 62 146 65Q165 68 176 76Q187 84 187 98L187 612Q187 627 176 634.50Q165 642 146 645Q127 648 102 648L71 648L71 710L316 710L753 106L753 638Q753 642 739 644Q725 646 705 647Q685 648 666 648L637 648L637 710L941 710L941 648L910 648Q886 648 866.50 645Q847 642 836 634.50Q825 627 825 612L825 0L721 0L259 639L259 72Q259 69 273 66.50Q287 64 307 63Q327 62 346 62L375 62L375 0L71 0M600 788Q574 788 553 799.50Q532 811 515 828Q498 845 483.50 861.50Q469 878 455.50 889.50Q442 901 428 901Q412 901 402 890Q392 879 386.50 854.50Q381 830 376 789L314 797Q324 868 339 906Q354 944 376.50 958.50Q399 973 431 973Q457 973 478 962Q499 951 516 934.50Q533 918 548.50 901Q564 884 578 873Q592 862 607 862Q623 862 632 873.50Q641 885 647 910Q653 935 660 976L722 968Q711 896 695 857Q679 818 655.50 803Q632 788 600 788Z"  horiz-adv-x="1003" vert-adv-y="1000"  />

      
      <glyph glyph-name="uni0143" unicode="&#x0143;" d="M71 0L71 62L102 62Q127 62 146 65Q165 68 176 76Q187 84 187 98L187 612Q187 627 176 634.50Q165 642 146 645Q127 648 102 648L71 648L71 710L316 710L753 106L753 638Q753 642 739 644Q725 646 705 647Q685 648 666 648L637 648L637 710L941 710L941 648L910 648Q886 648 866.50 645Q847 642 836 634.50Q825 627 825 612L825 0L721 0L259 639L259 72Q259 69 273 66.50Q287 64 307 63Q327 62 346 62L375 62L375 0L71 0M530 931L416 818L416 793L455 793L598 866Q616 876 630 885.50Q644 895 651.50 906.50Q659 918 659 934Q659 951 646 965Q633 979 609 979Q593 979 579.50 972Q566 965 554.50 954Q543 943 530 931Z"  horiz-adv-x="1003" vert-adv-y="1000"  />

      
      <glyph glyph-name="uni0145" unicode="&#x0145;" d="M71 0L71 62L102 62Q127 62 146 65Q165 68 176 76Q187 84 187 98L187 612Q187 627 176 634.50Q165 642 146 645Q127 648 102 648L71 648L71 710L316 710L753 106L753 638Q753 642 739 644Q725 646 705 647Q685 648 666 648L637 648L637 710L941 710L941 648L910 648Q886 648 866.50 645Q847 642 836 634.50Q825 627 825 612L825 0L721 0L259 639L259 72Q259 69 273 66.50Q287 64 307 63Q327 62 346 62L375 62L375 0L71 0M444-345L423-290Q467-281 492-267Q517-253 528-231Q534-219 537-203Q532-205 528-206Q516-210 501-210Q473-210 458.50-194.50Q444-179 444-152Q444-126 461-108.50Q478-91 513-91Q554-91 572.50-113Q591-135 591-177Q591-223 574.50-255.50Q558-288 525-309.50Q492-331 444-345Z"  horiz-adv-x="1003" vert-adv-y="1000"  />

      
      <glyph glyph-name="uni0147" unicode="&#x0147;" d="M71 0L71 62L102 62Q127 62 146 65Q165 68 176 76Q187 84 187 98L187 612Q187 627 176 634.50Q165 642 146 645Q127 648 102 648L71 648L71 710L316 710L753 106L753 638Q753 642 739 644Q725 646 705 647Q685 648 666 648L637 648L637 710L941 710L941 648L910 648Q886 648 866.50 645Q847 642 836 634.50Q825 627 825 612L825 0L721 0L259 639L259 72Q259 69 273 66.50Q287 64 307 63Q327 62 346 62L375 62L375 0L71 0M480 782L336 933L336 958L385 958L524 860L659 958L699 958L699 933L557 782L480 782Z"  horiz-adv-x="1003" vert-adv-y="1000"  />

      
      <glyph glyph-name="uni1E44" unicode="&#x1E44;" d="M71 0L71 62L102 62Q127 62 146 65Q165 68 176 76Q187 84 187 98L187 612Q187 627 176 634.50Q165 642 146 645Q127 648 102 648L71 648L71 710L316 710L753 106L753 638Q753 642 739 644Q725 646 705 647Q685 648 666 648L637 648L637 710L941 710L941 648L910 648Q886 648 866.50 645Q847 642 836 634.50Q825 627 825 612L825 0L721 0L259 639L259 72Q259 69 273 66.50Q287 64 307 63Q327 62 346 62L375 62L375 0L71 0M518 783Q484 783 466 802.50Q448 822 448 855Q448 889 466 908.50Q484 928 518 928Q551 928 569.50 908.50Q588 889 588 856Q588 822 569.50 802.50Q551 783 518 783Z"  horiz-adv-x="1003" vert-adv-y="1000"  />

      
      <glyph glyph-name="uni1E46" unicode="&#x1E46;" d="M71 0L71 62L102 62Q127 62 146 65Q165 68 176 76Q187 84 187 98L187 612Q187 627 176 634.50Q165 642 146 645Q127 648 102 648L71 648L71 710L316 710L753 106L753 638Q753 642 739 644Q725 646 705 647Q685 648 666 648L637 648L637 710L941 710L941 648L910 648Q886 648 866.50 645Q847 642 836 634.50Q825 627 825 612L825 0L721 0L259 639L259 72Q259 69 273 66.50Q287 64 307 63Q327 62 346 62L375 62L375 0L71 0M518-233Q484-233 466-213.50Q448-194 448-161Q448-127 466-107.50Q484-88 518-88Q551-88 569.50-107.50Q588-127 588-160Q588-194 569.50-213.50Q551-233 518-233Z"  horiz-adv-x="1003" vert-adv-y="1000"  />

      
      <glyph glyph-name="uni1E48" unicode="&#x1E48;" d="M71 0L71 62L102 62Q127 62 146 65Q165 68 176 76Q187 84 187 98L187 612Q187 627 176 634.50Q165 642 146 645Q127 648 102 648L71 648L71 710L316 710L753 106L753 638Q753 642 739 644Q725 646 705 647Q685 648 666 648L637 648L637 710L941 710L941 648L910 648Q886 648 866.50 645Q847 642 836 634.50Q825 627 825 612L825 0L721 0L259 639L259 72Q259 69 273 66.50Q287 64 307 63Q327 62 346 62L375 62L375 0L71 0M335-125L701-125L701-189L335-189L335-125Z"  horiz-adv-x="1003" vert-adv-y="1000"  />

      
      <glyph glyph-name="uni4f" unicode="&#x4f;" d="M491-25Q397-25 320-0.50Q243 24 187.50 72.50Q132 121 102 191.50Q72 262 72 355Q72 444 102 514.50Q132 585 187.50 634Q243 683 320 709Q397 735 491 735Q585 735 662 710.50Q739 686 794.50 638Q850 590 880 519Q910 448 910 355Q910 266 880 195.50Q850 125 794.50 76Q739 27 662 1Q585-25 491-25M491 41Q561 41 620 60.50Q679 80 722 119.50Q765 159 788.50 218Q812 277 812 355Q812 433 788.50 492Q765 551 722 590.50Q679 630 620 649.50Q561 669 491 669Q421 669 362 649.50Q303 630 260 590.50Q217 551 193.50 492Q170 433 170 355Q170 277 193.50 218Q217 159 260 119.50Q303 80 362 60.50Q421 41 491 41Z"  horiz-adv-x="982" vert-adv-y="1000"  />

      
      <glyph glyph-name="unid2" unicode="&#xd2;" d="M491-25Q397-25 320-0.50Q243 24 187.50 72.50Q132 121 102 191.50Q72 262 72 355Q72 444 102 514.50Q132 585 187.50 634Q243 683 320 709Q397 735 491 735Q585 735 662 710.50Q739 686 794.50 638Q850 590 880 519Q910 448 910 355Q910 266 880 195.50Q850 125 794.50 76Q739 27 662 1Q585-25 491-25M491 41Q561 41 620 60.50Q679 80 722 119.50Q765 159 788.50 218Q812 277 812 355Q812 433 788.50 492Q765 551 722 590.50Q679 630 620 649.50Q561 669 491 669Q421 669 362 649.50Q303 630 260 590.50Q217 551 193.50 492Q170 433 170 355Q170 277 193.50 218Q217 159 260 119.50Q303 80 362 60.50Q421 41 491 41M478 931Q466 943 454 954Q442 965 429 972Q416 979 399 979Q375 979 362 965Q349 951 349 934Q349 918 357 906.50Q365 895 378.50 885.50Q392 876 410 866L553 793L592 793L592 818L478 931Z"  horiz-adv-x="982" vert-adv-y="1000"  />

      
      <glyph glyph-name="unid3" unicode="&#xd3;" d="M491-25Q397-25 320-0.50Q243 24 187.50 72.50Q132 121 102 191.50Q72 262 72 355Q72 444 102 514.50Q132 585 187.50 634Q243 683 320 709Q397 735 491 735Q585 735 662 710.50Q739 686 794.50 638Q850 590 880 519Q910 448 910 355Q910 266 880 195.50Q850 125 794.50 76Q739 27 662 1Q585-25 491-25M491 41Q561 41 620 60.50Q679 80 722 119.50Q765 159 788.50 218Q812 277 812 355Q812 433 788.50 492Q765 551 722 590.50Q679 630 620 649.50Q561 669 491 669Q421 669 362 649.50Q303 630 260 590.50Q217 551 193.50 492Q170 433 170 355Q170 277 193.50 218Q217 159 260 119.50Q303 80 362 60.50Q421 41 491 41M503 931L389 818L389 793L428 793L571 866Q589 876 603 885.50Q617 895 624.50 906.50Q632 918 632 934Q632 951 619 965Q606 979 582 979Q566 979 552.50 972Q539 965 527.50 954Q516 943 503 931Z"  horiz-adv-x="982" vert-adv-y="1000"  />

      
      <glyph glyph-name="unid4" unicode="&#xd4;" d="M491-25Q397-25 320-0.50Q243 24 187.50 72.50Q132 121 102 191.50Q72 262 72 355Q72 444 102 514.50Q132 585 187.50 634Q243 683 320 709Q397 735 491 735Q585 735 662 710.50Q739 686 794.50 638Q850 590 880 519Q910 448 910 355Q910 266 880 195.50Q850 125 794.50 76Q739 27 662 1Q585-25 491-25M491 41Q561 41 620 60.50Q679 80 722 119.50Q765 159 788.50 218Q812 277 812 355Q812 433 788.50 492Q765 551 722 590.50Q679 630 620 649.50Q561 669 491 669Q421 669 362 649.50Q303 630 260 590.50Q217 551 193.50 492Q170 433 170 355Q170 277 193.50 218Q217 159 260 119.50Q303 80 362 60.50Q421 41 491 41M528 958L451 958L309 807L309 782L349 782L484 880L623 782L672 782L672 807L528 958Z"  horiz-adv-x="982" vert-adv-y="1000"  />

      
      <glyph glyph-name="unid5" unicode="&#xd5;" d="M491-25Q397-25 320-0.50Q243 24 187.50 72.50Q132 121 102 191.50Q72 262 72 355Q72 444 102 514.50Q132 585 187.50 634Q243 683 320 709Q397 735 491 735Q585 735 662 710.50Q739 686 794.50 638Q850 590 880 519Q910 448 910 355Q910 266 880 195.50Q850 125 794.50 76Q739 27 662 1Q585-25 491-25M491 41Q561 41 620 60.50Q679 80 722 119.50Q765 159 788.50 218Q812 277 812 355Q812 433 788.50 492Q765 551 722 590.50Q679 630 620 649.50Q561 669 491 669Q421 669 362 649.50Q303 630 260 590.50Q217 551 193.50 492Q170 433 170 355Q170 277 193.50 218Q217 159 260 119.50Q303 80 362 60.50Q421 41 491 41M573 788Q547 788 526 799.50Q505 811 488 828Q471 845 456.50 861.50Q442 878 428.50 889.50Q415 901 401 901Q385 901 375 890Q365 879 359.50 854.50Q354 830 349 789L287 797Q297 868 312 906Q327 944 349.50 958.50Q372 973 404 973Q430 973 451 962Q472 951 489 934.50Q506 918 521.50 901Q537 884 551 873Q565 862 580 862Q596 862 605 873.50Q614 885 620 910Q626 935 633 976L695 968Q684 896 668 857Q652 818 628.50 803Q605 788 573 788Z"  horiz-adv-x="982" vert-adv-y="1000"  />

      
      <glyph glyph-name="unid6" unicode="&#xd6;" d="M491-25Q397-25 320-0.50Q243 24 187.50 72.50Q132 121 102 191.50Q72 262 72 355Q72 444 102 514.50Q132 585 187.50 634Q243 683 320 709Q397 735 491 735Q585 735 662 710.50Q739 686 794.50 638Q850 590 880 519Q910 448 910 355Q910 266 880 195.50Q850 125 794.50 76Q739 27 662 1Q585-25 491-25M491 41Q561 41 620 60.50Q679 80 722 119.50Q765 159 788.50 218Q812 277 812 355Q812 433 788.50 492Q765 551 722 590.50Q679 630 620 649.50Q561 669 491 669Q421 669 362 649.50Q303 630 260 590.50Q217 551 193.50 492Q170 433 170 355Q170 277 193.50 218Q217 159 260 119.50Q303 80 362 60.50Q421 41 491 41M426 856Q426 823 407 804.50Q388 786 354 786Q321 786 302.50 804.50Q284 823 284 856Q284 890 302.50 908.50Q321 927 355 927Q388 927 407 908.50Q426 890 426 856M698 856Q698 823 679 804.50Q660 786 627 786Q593 786 574.50 804.50Q556 823 556 856Q556 890 574.50 908.50Q593 927 627 927Q660 927 679 908.50Q698 890 698 856Z"  horiz-adv-x="982" vert-adv-y="1000"  />

      
      <glyph glyph-name="uni014C" unicode="&#x014C;" d="M491-25Q397-25 320-0.50Q243 24 187.50 72.50Q132 121 102 191.50Q72 262 72 355Q72 444 102 514.50Q132 585 187.50 634Q243 683 320 709Q397 735 491 735Q585 735 662 710.50Q739 686 794.50 638Q850 590 880 519Q910 448 910 355Q910 266 880 195.50Q850 125 794.50 76Q739 27 662 1Q585-25 491-25M491 41Q561 41 620 60.50Q679 80 722 119.50Q765 159 788.50 218Q812 277 812 355Q812 433 788.50 492Q765 551 722 590.50Q679 630 620 649.50Q561 669 491 669Q421 669 362 649.50Q303 630 260 590.50Q217 551 193.50 492Q170 433 170 355Q170 277 193.50 218Q217 159 260 119.50Q303 80 362 60.50Q421 41 491 41M308 908L674 908L674 844L308 844L308 908Z"  horiz-adv-x="982" vert-adv-y="1000"  />

      
      <glyph glyph-name="uni014E" unicode="&#x014E;" d="M491-25Q397-25 320-0.50Q243 24 187.50 72.50Q132 121 102 191.50Q72 262 72 355Q72 444 102 514.50Q132 585 187.50 634Q243 683 320 709Q397 735 491 735Q585 735 662 710.50Q739 686 794.50 638Q850 590 880 519Q910 448 910 355Q910 266 880 195.50Q850 125 794.50 76Q739 27 662 1Q585-25 491-25M491 41Q561 41 620 60.50Q679 80 722 119.50Q765 159 788.50 218Q812 277 812 355Q812 433 788.50 492Q765 551 722 590.50Q679 630 620 649.50Q561 669 491 669Q421 669 362 649.50Q303 630 260 590.50Q217 551 193.50 492Q170 433 170 355Q170 277 193.50 218Q217 159 260 119.50Q303 80 362 60.50Q421 41 491 41M491 797Q554 797 599 815.50Q644 834 668 871.50Q692 909 693 965L627 965Q625 936 611.50 915.50Q598 895 569 884Q540 873 491 873Q445 873 417 884Q389 895 375.50 915.50Q362 936 359 965L288 965Q290 909 314.50 871.50Q339 834 384 815.50Q429 797 491 797Z"  horiz-adv-x="982" vert-adv-y="1000"  />

      
      <glyph glyph-name="uni0150" unicode="&#x0150;" d="M491-25Q397-25 320-0.50Q243 24 187.50 72.50Q132 121 102 191.50Q72 262 72 355Q72 444 102 514.50Q132 585 187.50 634Q243 683 320 709Q397 735 491 735Q585 735 662 710.50Q739 686 794.50 638Q850 590 880 519Q910 448 910 355Q910 266 880 195.50Q850 125 794.50 76Q739 27 662 1Q585-25 491-25M491 41Q561 41 620 60.50Q679 80 722 119.50Q765 159 788.50 218Q812 277 812 355Q812 433 788.50 492Q765 551 722 590.50Q679 630 620 649.50Q561 669 491 669Q421 669 362 649.50Q303 630 260 590.50Q217 551 193.50 492Q170 433 170 355Q170 277 193.50 218Q217 159 260 119.50Q303 80 362 60.50Q421 41 491 41M438 922Q448 937 457 948Q466 959 478 965.50Q490 972 507 972Q531 972 544.50 958.50Q558 945 558 927Q558 906 543.50 890Q529 874 505 858L407 793L370 793L370 818L438 922M646 922Q655 937 665 948Q675 959 688 965.50Q701 972 717 972Q742 972 755.50 958.50Q769 945 769 927Q769 906 754 890Q739 874 716 858L618 793L580 793L580 818L646 922Z"  horiz-adv-x="982" vert-adv-y="1000"  />

      
      <glyph glyph-name="uni01A0" unicode="&#x01A0;" d="M746 638Q769 625 790 611Q827 584 854 548Q881 512 895.50 464.50Q910 417 910 355Q910 266 880 195.50Q850 125 794.50 76Q739 27 662 1Q585-25 491-25Q397-25 320-0.50Q243 24 187.50 72.50Q132 121 102 191.50Q72 262 72 355Q72 444 102 514.50Q132 585 187.50 634Q243 683 320 709Q397 735 491 735Q549 735 597 728.50Q645 722 684.50 713.50Q724 705 757.50 698.50Q791 692 819 692Q852 692 876.50 705.50Q901 719 918 746Q935 773 945 811.50Q955 850 958 899L1045 899Q1042 826 1026 774.50Q1010 723 984 691Q958 659 926 644Q894 629 860 629Q839 629 819.50 633.50Q800 638 781 645Q764 651 746 659L746 638M491 41Q561 41 620 60.50Q679 80 722 119.50Q765 159 788.50 218Q812 277 812 355Q812 433 788.50 492Q765 551 722 590.50Q679 630 620 649.50Q561 669 491 669Q421 669 362 649.50Q303 630 260 590.50Q217 551 193.50 492Q170 433 170 355Q170 277 193.50 218Q217 159 260 119.50Q303 80 362 60.50Q421 41 491 41Z"  horiz-adv-x="1017" vert-adv-y="1000"  />

      
      <glyph glyph-name="uni01D1" unicode="&#x01D1;" d="M491-25Q397-25 320-0.50Q243 24 187.50 72.50Q132 121 102 191.50Q72 262 72 355Q72 444 102 514.50Q132 585 187.50 634Q243 683 320 709Q397 735 491 735Q585 735 662 710.50Q739 686 794.50 638Q850 590 880 519Q910 448 910 355Q910 266 880 195.50Q850 125 794.50 76Q739 27 662 1Q585-25 491-25M491 41Q561 41 620 60.50Q679 80 722 119.50Q765 159 788.50 218Q812 277 812 355Q812 433 788.50 492Q765 551 722 590.50Q679 630 620 649.50Q561 669 491 669Q421 669 362 649.50Q303 630 260 590.50Q217 551 193.50 492Q170 433 170 355Q170 277 193.50 218Q217 159 260 119.50Q303 80 362 60.50Q421 41 491 41M453 782L309 933L309 958L358 958L497 860L632 958L672 958L672 933L530 782L453 782Z"  horiz-adv-x="982" vert-adv-y="1000"  />

      
      <glyph glyph-name="uni01EA" unicode="&#x01EA;" d="M762 55Q745 43 716 26.50Q687 10 654.50-10.50Q622-31 593-54Q564-77 545.50-102Q527-127 527-153Q527-176 540.50-186.50Q554-197 582-197Q614-197 639.50-182Q665-167 687-144L722-182Q704-202 680.50-218Q657-234 627.50-243Q598-252 559-252Q520-252 492-242.50Q464-233 449-213.50Q434-194 434-164Q434-139 442.50-120Q451-101 473.50-81Q496-61 537-34Q546-28 557-21Q548-22 539-23Q516-25 491-25Q397-25 320-0.50Q243 24 187.50 72.50Q132 121 102 191.50Q72 262 72 355Q72 444 102 514.50Q132 585 187.50 634Q243 683 320 709Q397 735 491 735Q585 735 662 710.50Q739 686 794.50 638Q850 590 880 519Q910 448 910 355Q910 292 895.50 238Q881 184 848.50 139Q816 94 762 55M491 41Q561 41 620 60.50Q679 80 722 119.50Q765 159 788.50 218Q812 277 812 355Q812 433 788.50 492Q765 551 722 590.50Q679 630 620 649.50Q561 669 491 669Q421 669 362 649.50Q303 630 260 590.50Q217 551 193.50 492Q170 433 170 355Q170 277 193.50 218Q217 159 260 119.50Q303 80 362 60.50Q421 41 491 41Z"  horiz-adv-x="982" vert-adv-y="1000"  />

      
      <glyph glyph-name="uni020C" unicode="&#x020C;" d="M562 922L630 818L630 793L593 793L495 858Q471 874 456.50 890Q442 906 442 928Q442 945 455.50 958.50Q469 972 493 972Q510 972 522 965.50Q534 959 543.50 948Q553 937 562 922M354 922L420 818L420 793L382 793L284 858Q261 874 246 890Q231 906 231 928Q231 945 244.50 958.50Q258 972 283 972Q300 972 312.50 965.50Q325 959 335 948Q345 937 354 922M491-25Q397-25 320-0.50Q243 24 187.50 72.50Q132 121 102 191.50Q72 262 72 355Q72 444 102 514.50Q132 585 187.50 634Q243 683 320 709Q397 735 491 735Q585 735 662 710.50Q739 686 794.50 638Q850 590 880 519Q910 448 910 355Q910 266 880 195.50Q850 125 794.50 76Q739 27 662 1Q585-25 491-25M491 41Q561 41 620 60.50Q679 80 722 119.50Q765 159 788.50 218Q812 277 812 355Q812 433 788.50 492Q765 551 722 590.50Q679 630 620 649.50Q561 669 491 669Q421 669 362 649.50Q303 630 260 590.50Q217 551 193.50 492Q170 433 170 355Q170 277 193.50 218Q217 159 260 119.50Q303 80 362 60.50Q421 41 491 41Z"  horiz-adv-x="982" vert-adv-y="1000"  />

      
      <glyph glyph-name="uni020E" unicode="&#x020E;" d="M491-25Q397-25 320-0.50Q243 24 187.50 72.50Q132 121 102 191.50Q72 262 72 355Q72 444 102 514.50Q132 585 187.50 634Q243 683 320 709Q397 735 491 735Q585 735 662 710.50Q739 686 794.50 638Q850 590 880 519Q910 448 910 355Q910 266 880 195.50Q850 125 794.50 76Q739 27 662 1Q585-25 491-25M491 41Q561 41 620 60.50Q679 80 722 119.50Q765 159 788.50 218Q812 277 812 355Q812 433 788.50 492Q765 551 722 590.50Q679 630 620 649.50Q561 669 491 669Q421 669 362 649.50Q303 630 260 590.50Q217 551 193.50 492Q170 433 170 355Q170 277 193.50 218Q217 159 260 119.50Q303 80 362 60.50Q421 41 491 41M490 965Q552 965 597 946.50Q642 928 667 890.50Q692 853 693 797L622 797Q620 826 606 846.50Q592 867 564 878Q536 889 490 889Q442 889 412.50 878Q383 867 369.50 846.50Q356 826 354 797L288 797Q289 853 313 890.50Q337 928 382 946.50Q427 965 490 965Z"  horiz-adv-x="982" vert-adv-y="1000"  />

      
      <glyph glyph-name="uni022A" unicode="&#x022A;" d="M491-25Q397-25 320-0.50Q243 24 187.50 72.50Q132 121 102 191.50Q72 262 72 355Q72 444 102 514.50Q132 585 187.50 634Q243 683 320 709Q397 735 491 735Q585 735 662 710.50Q739 686 794.50 638Q850 590 880 519Q910 448 910 355Q910 266 880 195.50Q850 125 794.50 76Q739 27 662 1Q585-25 491-25M491 41Q561 41 620 60.50Q679 80 722 119.50Q765 159 788.50 218Q812 277 812 355Q812 433 788.50 492Q765 551 722 590.50Q679 630 620 649.50Q561 669 491 669Q421 669 362 649.50Q303 630 260 590.50Q217 551 193.50 492Q170 433 170 355Q170 277 193.50 218Q217 159 260 119.50Q303 80 362 60.50Q421 41 491 41M426 856Q426 823 407 804.50Q388 786 354 786Q321 786 302.50 804.50Q284 823 284 856Q284 890 302.50 908.50Q321 927 355 927Q388 927 407 908.50Q426 890 426 856M698 856Q698 823 679 804.50Q660 786 627 786Q593 786 574.50 804.50Q556 823 556 856Q556 890 574.50 908.50Q593 927 627 927Q660 927 679 908.50Q698 890 698 856M308 1059L674 1059L674 995L308 995L308 1059Z"  horiz-adv-x="982" vert-adv-y="1000"  />

      
      <glyph glyph-name="uni022C" unicode="&#x022C;" d="M491-25Q397-25 320-0.50Q243 24 187.50 72.50Q132 121 102 191.50Q72 262 72 355Q72 444 102 514.50Q132 585 187.50 634Q243 683 320 709Q397 735 491 735Q585 735 662 710.50Q739 686 794.50 638Q850 590 880 519Q910 448 910 355Q910 266 880 195.50Q850 125 794.50 76Q739 27 662 1Q585-25 491-25M491 41Q561 41 620 60.50Q679 80 722 119.50Q765 159 788.50 218Q812 277 812 355Q812 433 788.50 492Q765 551 722 590.50Q679 630 620 649.50Q561 669 491 669Q421 669 362 649.50Q303 630 260 590.50Q217 551 193.50 492Q170 433 170 355Q170 277 193.50 218Q217 159 260 119.50Q303 80 362 60.50Q421 41 491 41M573 788Q547 788 526 799.50Q505 811 488 828Q471 845 456.50 861.50Q442 878 428.50 889.50Q415 901 401 901Q385 901 375 890Q365 879 359.50 854.50Q354 830 349 789L287 797Q297 868 312 906Q327 944 349.50 958.50Q372 973 404 973Q430 973 451 962Q472 951 489 934.50Q506 918 521.50 901Q537 884 551 873Q565 862 580 862Q596 862 605 873.50Q614 885 620 910Q626 935 633 976L695 968Q684 896 668 857Q652 818 628.50 803Q605 788 573 788M308 1106L674 1106L674 1042L308 1042L308 1106Z"  horiz-adv-x="982" vert-adv-y="1000"  />

      
      <glyph glyph-name="uni0230" unicode="&#x0230;" d="M491-25Q397-25 320-0.50Q243 24 187.50 72.50Q132 121 102 191.50Q72 262 72 355Q72 444 102 514.50Q132 585 187.50 634Q243 683 320 709Q397 735 491 735Q585 735 662 710.50Q739 686 794.50 638Q850 590 880 519Q910 448 910 355Q910 266 880 195.50Q850 125 794.50 76Q739 27 662 1Q585-25 491-25M491 41Q561 41 620 60.50Q679 80 722 119.50Q765 159 788.50 218Q812 277 812 355Q812 433 788.50 492Q765 551 722 590.50Q679 630 620 649.50Q561 669 491 669Q421 669 362 649.50Q303 630 260 590.50Q217 551 193.50 492Q170 433 170 355Q170 277 193.50 218Q217 159 260 119.50Q303 80 362 60.50Q421 41 491 41M491 783Q457 783 439 802.50Q421 822 421 855Q421 889 439 908.50Q457 928 491 928Q524 928 542.50 908.50Q561 889 561 856Q561 822 542.50 802.50Q524 783 491 783M308 1059L674 1059L674 995L308 995L308 1059Z"  horiz-adv-x="982" vert-adv-y="1000"  />

      
      <glyph glyph-name="uni1E4C" unicode="&#x1E4C;" d="M491-25Q397-25 320-0.50Q243 24 187.50 72.50Q132 121 102 191.50Q72 262 72 355Q72 444 102 514.50Q132 585 187.50 634Q243 683 320 709Q397 735 491 735Q585 735 662 710.50Q739 686 794.50 638Q850 590 880 519Q910 448 910 355Q910 266 880 195.50Q850 125 794.50 76Q739 27 662 1Q585-25 491-25M491 41Q561 41 620 60.50Q679 80 722 119.50Q765 159 788.50 218Q812 277 812 355Q812 433 788.50 492Q765 551 722 590.50Q679 630 620 649.50Q561 669 491 669Q421 669 362 649.50Q303 630 260 590.50Q217 551 193.50 492Q170 433 170 355Q170 277 193.50 218Q217 159 260 119.50Q303 80 362 60.50Q421 41 491 41M573 788Q547 788 526 799.50Q505 811 488 828Q471 845 456.50 861.50Q442 878 428.50 889.50Q415 901 401 901Q385 901 375 890Q365 879 359.50 854.50Q354 830 349 789L287 797Q297 868 312 906Q327 944 349.50 958.50Q372 973 404 973Q430 973 451 962Q472 951 489 934.50Q506 918 521.50 901Q537 884 551 873Q565 862 580 862Q596 862 605 873.50Q614 885 620 910Q626 935 633 976L695 968Q684 896 668 857Q652 818 628.50 803Q605 788 573 788M514 1149L400 1036L400 1011L439 1011L582 1084Q600 1094 614 1103.50Q628 1113 635.50 1124.50Q643 1136 643 1152Q643 1169 630 1183Q617 1197 593 1197Q577 1197 563.50 1190Q550 1183 538.50 1172Q527 1161 514 1149Z"  horiz-adv-x="982" vert-adv-y="1000"  />

      
      <glyph glyph-name="uni1E4E" unicode="&#x1E4E;" d="M491-25Q397-25 320-0.50Q243 24 187.50 72.50Q132 121 102 191.50Q72 262 72 355Q72 444 102 514.50Q132 585 187.50 634Q243 683 320 709Q397 735 491 735Q585 735 662 710.50Q739 686 794.50 638Q850 590 880 519Q910 448 910 355Q910 266 880 195.50Q850 125 794.50 76Q739 27 662 1Q585-25 491-25M491 41Q561 41 620 60.50Q679 80 722 119.50Q765 159 788.50 218Q812 277 812 355Q812 433 788.50 492Q765 551 722 590.50Q679 630 620 649.50Q561 669 491 669Q421 669 362 649.50Q303 630 260 590.50Q217 551 193.50 492Q170 433 170 355Q170 277 193.50 218Q217 159 260 119.50Q303 80 362 60.50Q421 41 491 41M573 788Q547 788 526 799.50Q505 811 488 828Q471 845 456.50 861.50Q442 878 428.50 889.50Q415 901 401 901Q385 901 375 890Q365 879 359.50 854.50Q354 830 349 789L287 797Q297 868 312 906Q327 944 349.50 958.50Q372 973 404 973Q430 973 451 962Q472 951 489 934.50Q506 918 521.50 901Q537 884 551 873Q565 862 580 862Q596 862 605 873.50Q614 885 620 910Q626 935 633 976L695 968Q684 896 668 857Q652 818 628.50 803Q605 788 573 788M426 1098Q426 1065 407 1046.50Q388 1028 354 1028Q321 1028 302.50 1046.50Q284 1065 284 1098Q284 1132 302.50 1150.50Q321 1169 355 1169Q388 1169 407 1150.50Q426 1132 426 1098M698 1098Q698 1065 679 1046.50Q660 1028 627 1028Q593 1028 574.50 1046.50Q556 1065 556 1098Q556 1132 574.50 1150.50Q593 1169 627 1169Q660 1169 679 1150.50Q698 1132 698 1098Z"  horiz-adv-x="982" vert-adv-y="1000"  />

      
      <glyph glyph-name="uni1E50" unicode="&#x1E50;" d="M491-25Q397-25 320-0.50Q243 24 187.50 72.50Q132 121 102 191.50Q72 262 72 355Q72 444 102 514.50Q132 585 187.50 634Q243 683 320 709Q397 735 491 735Q585 735 662 710.50Q739 686 794.50 638Q850 590 880 519Q910 448 910 355Q910 266 880 195.50Q850 125 794.50 76Q739 27 662 1Q585-25 491-25M491 41Q561 41 620 60.50Q679 80 722 119.50Q765 159 788.50 218Q812 277 812 355Q812 433 788.50 492Q765 551 722 590.50Q679 630 620 649.50Q561 669 491 669Q421 669 362 649.50Q303 630 260 590.50Q217 551 193.50 492Q170 433 170 355Q170 277 193.50 218Q217 159 260 119.50Q303 80 362 60.50Q421 41 491 41M308 908L674 908L674 844L308 844L308 908M469 1112Q457 1124 445 1135Q433 1146 420 1153Q407 1160 390 1160Q366 1160 353 1146Q340 1132 340 1115Q340 1099 348 1087.50Q356 1076 369.50 1066.50Q383 1057 401 1047L544 974L583 974L583 999L469 1112Z"  horiz-adv-x="982" vert-adv-y="1000"  />

      
      <glyph glyph-name="uni1E52" unicode="&#x1E52;" d="M491-25Q397-25 320-0.50Q243 24 187.50 72.50Q132 121 102 191.50Q72 262 72 355Q72 444 102 514.50Q132 585 187.50 634Q243 683 320 709Q397 735 491 735Q585 735 662 710.50Q739 686 794.50 638Q850 590 880 519Q910 448 910 355Q910 266 880 195.50Q850 125 794.50 76Q739 27 662 1Q585-25 491-25M491 41Q561 41 620 60.50Q679 80 722 119.50Q765 159 788.50 218Q812 277 812 355Q812 433 788.50 492Q765 551 722 590.50Q679 630 620 649.50Q561 669 491 669Q421 669 362 649.50Q303 630 260 590.50Q217 551 193.50 492Q170 433 170 355Q170 277 193.50 218Q217 159 260 119.50Q303 80 362 60.50Q421 41 491 41M308 908L674 908L674 844L308 844L308 908M514 1112L400 999L400 974L439 974L582 1047Q600 1057 614 1066.50Q628 1076 635.50 1087.50Q643 1099 643 1115Q643 1132 630 1146Q617 1160 593 1160Q577 1160 563.50 1153Q550 1146 538.50 1135Q527 1124 514 1112Z"  horiz-adv-x="982" vert-adv-y="1000"  />

      
      <glyph glyph-name="uni1ECC" unicode="&#x1ECC;" d="M491-25Q397-25 320-0.50Q243 24 187.50 72.50Q132 121 102 191.50Q72 262 72 355Q72 444 102 514.50Q132 585 187.50 634Q243 683 320 709Q397 735 491 735Q585 735 662 710.50Q739 686 794.50 638Q850 590 880 519Q910 448 910 355Q910 266 880 195.50Q850 125 794.50 76Q739 27 662 1Q585-25 491-25M491 41Q561 41 620 60.50Q679 80 722 119.50Q765 159 788.50 218Q812 277 812 355Q812 433 788.50 492Q765 551 722 590.50Q679 630 620 649.50Q561 669 491 669Q421 669 362 649.50Q303 630 260 590.50Q217 551 193.50 492Q170 433 170 355Q170 277 193.50 218Q217 159 260 119.50Q303 80 362 60.50Q421 41 491 41M491-233Q457-233 439-213.50Q421-194 421-161Q421-127 439-107.50Q457-88 491-88Q524-88 542.50-107.50Q561-127 561-160Q561-194 542.50-213.50Q524-233 491-233Z"  horiz-adv-x="982" vert-adv-y="1000"  />

      
      <glyph glyph-name="uni1ECE" unicode="&#x1ECE;" d="M491-25Q397-25 320-0.50Q243 24 187.50 72.50Q132 121 102 191.50Q72 262 72 355Q72 444 102 514.50Q132 585 187.50 634Q243 683 320 709Q397 735 491 735Q585 735 662 710.50Q739 686 794.50 638Q850 590 880 519Q910 448 910 355Q910 266 880 195.50Q850 125 794.50 76Q739 27 662 1Q585-25 491-25M491 41Q561 41 620 60.50Q679 80 722 119.50Q765 159 788.50 218Q812 277 812 355Q812 433 788.50 492Q765 551 722 590.50Q679 630 620 649.50Q561 669 491 669Q421 669 362 649.50Q303 630 260 590.50Q217 551 193.50 492Q170 433 170 355Q170 277 193.50 218Q217 159 260 119.50Q303 80 362 60.50Q421 41 491 41M318 929L403 929Q407 954 432 969Q457 984 500 984Q546 984 564 970.50Q582 957 582 933Q582 910 566 896Q550 882 520.50 876Q491 870 452 869L452 778L530 778L530 833Q554 836 575 840Q617 849 642 872.50Q667 896 667 938Q667 971 649 995.50Q631 1020 594.50 1034Q558 1048 502 1048Q448 1048 407.50 1033Q367 1018 344 991Q321 964 318 929Z"  horiz-adv-x="982" vert-adv-y="1000"  />

      
      <glyph glyph-name="uni1ED0" unicode="&#x1ED0;" d="M491-25Q397-25 320-0.50Q243 24 187.50 72.50Q132 121 102 191.50Q72 262 72 355Q72 444 102 514.50Q132 585 187.50 634Q243 683 320 709Q397 735 491 735Q585 735 662 710.50Q739 686 794.50 638Q850 590 880 519Q910 448 910 355Q910 266 880 195.50Q850 125 794.50 76Q739 27 662 1Q585-25 491-25M491 41Q561 41 620 60.50Q679 80 722 119.50Q765 159 788.50 218Q812 277 812 355Q812 433 788.50 492Q765 551 722 590.50Q679 630 620 649.50Q561 669 491 669Q421 669 362 649.50Q303 630 260 590.50Q217 551 193.50 492Q170 433 170 355Q170 277 193.50 218Q217 159 260 119.50Q303 80 362 60.50Q421 41 491 41M533 958L456 958L314 807L314 782L354 782L489 880L628 782L677 782L677 807L533 958M749 1059L640 934L640 909L678 909L817 991Q836 1002 849.50 1012Q863 1022 871 1033.50Q879 1045 879 1058Q879 1078 865.50 1092Q852 1106 826 1106Q810 1106 797 1100Q784 1094 772.50 1083.50Q761 1073 749 1059Z"  horiz-adv-x="982" vert-adv-y="1000"  />

      
      <glyph glyph-name="uni1ED2" unicode="&#x1ED2;" d="M491-25Q397-25 320-0.50Q243 24 187.50 72.50Q132 121 102 191.50Q72 262 72 355Q72 444 102 514.50Q132 585 187.50 634Q243 683 320 709Q397 735 491 735Q585 735 662 710.50Q739 686 794.50 638Q850 590 880 519Q910 448 910 355Q910 266 880 195.50Q850 125 794.50 76Q739 27 662 1Q585-25 491-25M491 41Q561 41 620 60.50Q679 80 722 119.50Q765 159 788.50 218Q812 277 812 355Q812 433 788.50 492Q765 551 722 590.50Q679 630 620 649.50Q561 669 491 669Q421 669 362 649.50Q303 630 260 590.50Q217 551 193.50 492Q170 433 170 355Q170 277 193.50 218Q217 159 260 119.50Q303 80 362 60.50Q421 41 491 41M535 958L458 958L316 807L316 782L356 782L491 880L630 782L679 782L679 807L535 958M702 1071Q690 1085 679 1095Q668 1105 655.50 1111Q643 1117 627 1117Q602 1117 589 1104Q576 1091 576 1074Q576 1059 584 1047Q592 1035 605 1025Q618 1015 634 1005L773 922L811 922L811 947L702 1071Z"  horiz-adv-x="982" vert-adv-y="1000"  />

      
      </font>
</defs>
</svg>
