<?xml version="1.0" standalone="no"?>
<!DOCTYPE svg PUBLIC "-//W3C//DTD SVG 20010904//EN"
 "http://www.w3.org/TR/2001/REC-SVG-20010904/DTD/svg10.dtd">
<svg version="1.0" xmlns="http://www.w3.org/2000/svg"
 width="1219.000000pt" height="1280.000000pt" viewBox="0 0 1219.000000 1280.000000"
 preserveAspectRatio="xMidYMid meet">
<metadata>
Created by potrace 1.15, written by Peter Selinger 2001-2017
</metadata>
<g transform="translate(0.000000,1280.000000) scale(0.100000,-0.100000)"
fill="#e91e63" stroke="none">
<path d="M6677 12479 l-457 -321 -452 317 c-248 174 -454 312 -458 308 -17
-19 -531 -765 -536 -777 -4 -9 130 -101 420 -287 l425 -274 3 -388 c3 -341 1
-387 -12 -381 -8 3 -219 120 -469 261 -375 211 -455 253 -466 242 -10 -12
-417 -663 -476 -764 l-19 -31 456 -269 455 -270 -6 -305 c-3 -168 -8 -335 -11
-371 l-6 -66 -312 -167 c-172 -91 -318 -166 -325 -166 -7 0 -159 78 -337 173
l-324 172 0 50 c1 28 13 277 29 555 16 278 27 506 26 508 -2 2 -233 29 -514
61 l-511 57 0 -42 c0 -106 -22 -1209 -24 -1211 -1 -2 -160 82 -352 186 l-349
189 -3 54 c-1 29 -14 289 -27 577 -13 288 -25 525 -27 526 -5 5 -938 -42 -944
-47 -2 -3 19 -272 47 -598 28 -327 47 -596 42 -597 -54 -20 -988 -464 -986
-470 3 -15 395 -848 404 -857 4 -5 208 94 459 223 l450 231 336 -191 c185
-105 332 -195 327 -199 -4 -5 -210 -129 -458 -275 -247 -147 -452 -268 -454
-270 -6 -6 441 -835 450 -835 5 0 213 115 464 255 250 140 457 255 459 255 2
0 143 -85 312 -189 l309 -189 2 -99 c2 -54 0 -217 -5 -363 l-7 -264 -323 -202
-324 -203 -66 44 c-37 23 -247 160 -467 304 -220 143 -403 257 -406 253 -4 -4
-142 -190 -308 -415 l-300 -407 37 -23 c20 -13 261 -158 535 -322 273 -164
497 -301 497 -304 0 -8 -661 -414 -674 -414 -6 0 -237 118 -514 262 -277 143
-507 261 -511 261 -4 0 -96 -173 -205 -385 -183 -358 -197 -388 -194 -431 l3
-47 519 -243 c286 -135 520 -245 522 -247 1 -1 -20 -247 -47 -547 -26 -299
-46 -546 -44 -548 5 -6 956 -85 959 -80 2 1 13 228 26 503 15 322 27 504 34
512 6 6 157 97 336 201 l325 190 8 -536 c5 -295 10 -538 12 -540 6 -7 936 -34
942 -28 3 3 9 242 12 530 4 289 9 527 11 529 3 2 147 82 321 179 l316 175 250
-152 c346 -211 373 -230 374 -263 0 -15 6 -184 13 -377 7 -192 10 -351 7 -353
-3 -1 -227 -115 -498 -253 l-492 -250 28 -62 c15 -34 108 -245 206 -469 97
-225 181 -408 185 -408 5 0 248 133 542 296 293 163 538 298 544 301 8 3 13
-80 18 -284 3 -158 9 -337 12 -398 l6 -110 -491 -314 c-411 -263 -489 -316
-481 -330 5 -9 114 -178 243 -376 l232 -360 47 -3 c46 -3 48 -2 507 318 l461
322 448 -314 c246 -172 450 -313 454 -313 8 0 548 774 548 786 0 4 -191 130
-425 281 l-424 273 -3 388 c-3 333 -1 386 11 382 8 -3 219 -121 469 -261 376
-212 456 -254 467 -243 7 8 121 189 254 403 177 286 238 392 229 398 -7 4
-211 126 -453 269 -242 144 -442 263 -444 265 -3 3 15 474 25 646 l6 97 309
171 310 171 334 -178 335 -178 0 -45 c-1 -25 -13 -274 -29 -555 -16 -280 -27
-511 -26 -513 2 -2 178 -23 392 -47 213 -25 442 -51 508 -58 66 -8 121 -14
122 -13 1 1 7 282 13 626 6 344 12 626 14 627 1 1 159 -83 351 -187 l350 -188
3 -59 c1 -32 13 -291 27 -576 13 -285 25 -520 27 -522 5 -5 938 42 943 47 3 2
-18 271 -46 597 -28 326 -49 594 -47 595 1 2 224 105 493 230 270 125 493 231
496 234 6 6 -388 852 -404 868 -3 4 -209 -98 -457 -225 l-451 -232 -335 192
c-185 105 -332 195 -327 199 4 5 210 128 458 275 247 146 451 268 453 270 6 6
-440 835 -449 835 -5 0 -214 -115 -464 -256 -251 -140 -459 -254 -463 -252
-18 7 -598 372 -611 384 -11 10 -12 71 -5 365 l9 354 324 201 324 202 116 -76
c64 -42 273 -179 465 -304 193 -126 353 -225 357 -221 4 5 142 191 308 415
l300 407 -535 322 c-294 177 -534 324 -534 328 0 8 662 414 675 414 5 0 236
-118 513 -262 277 -143 506 -261 511 -261 4 0 96 173 205 384 184 359 197 388
194 432 l-3 46 -519 244 c-285 133 -519 244 -521 246 -1 2 19 248 46 548 26
299 46 546 44 548 -5 5 -956 85 -959 80 -2 -1 -13 -228 -26 -503 -15 -322 -27
-504 -34 -512 -6 -6 -157 -97 -336 -202 l-325 -190 -8 537 c-5 295 -10 538
-12 540 -6 6 -936 34 -942 28 -3 -3 -9 -240 -12 -526 -4 -312 -11 -523 -16
-529 -6 -5 -160 -82 -343 -170 l-332 -162 -93 57 c-50 31 -181 115 -289 187
-173 113 -198 132 -199 156 0 14 -6 179 -13 366 -7 187 -11 343 -9 347 2 4
226 120 498 258 l494 250 -26 58 c-14 31 -101 230 -193 442 -200 458 -191 440
-200 440 -4 0 -247 -133 -541 -296 -294 -163 -539 -298 -545 -301 -8 -3 -13
83 -18 294 -3 164 -9 343 -12 398 l-6 100 491 314 c413 264 489 316 481 330
-5 9 -114 178 -242 376 l-234 360 -49 2 -50 2 -458 -320z"/>
</g>
</svg>
